<svg xmlns="http://www.w3.org/2000/svg" width="24" height="24" viewBox="0 0 24 24"><path d="m19.92,7.62c-.05-.12-.12-.23-.22-.32l-5-5c-.09-.09-.2-.17-.32-.22-.12-.05-.25-.08-.39-.08h-7c-.8,0-1.55.31-2.12.88-.57.57-.88,1.32-.88,2.12v14c0,.8.31,1.55.88,2.12.57.57,1.32.88,2.12.88h10c.8,0,1.55-.31,2.12-.88s.88-1.32.88-2.12v-11c0-.13-.03-.26-.08-.38Zm-4.92-2.2l1.59,1.59h-1.59v-1.59Zm2.71,14.29c-.19.19-.44.29-.71.29H7c-.26,0-.52-.11-.71-.29-.19-.19-.29-.44-.29-.71V5c0-.26.11-.52.29-.71.19-.19.44-.29.71-.29h6v3c0,.53.21,1.04.59,1.41s.88.59,1.41.59h3v10c0,.26-.11.52-.29.71Z"/></svg>