<svg xmlns="http://www.w3.org/2000/svg" width="113" height="20" viewBox="0 0 113 20"><path d="m8.57,11.7c.64-.22,1.19-.53,1.64-.94.46-.4.8-.89,1.04-1.46.24-.57.35-1.21.35-1.91,0-.96-.16-1.74-.48-2.35-.31-.62-.73-1.11-1.27-1.46s-1.15-.59-1.83-.73c-.67-.15-1.37-.23-2.1-.23H0v14.72h2.97v-5.18h2.64l2.87,5.18h3.35l-3.26-5.65Zm-.17-3.31c-.14.28-.34.5-.6.67-.25.17-.55.29-.91.37-.35.07-.73.1-1.16.1h-2.74v-4.14h2.93c.55,0,1.03.06,1.43.19.42.11.73.31.96.6.24.28.35.67.33,1.19,0,.4-.08.74-.23,1.02Z"/><polygon points="13.33 17.36 13.33 2.64 23.94 2.64 23.94 5.41 16.3 5.41 16.3 8.73 22.85 8.73 22.85 11.39 16.3 11.39 16.3 14.62 23.94 14.62 23.94 17.36 13.33 17.36"/><path d="m34.08,2.64h-3.33l-5.74,14.72h3.2l.91-2.52h6.51l.91,2.52h3.2l-5.68-14.72Zm-3.99,9.52l2.33-6.36,2.29,6.36h-4.62Z"/><polygon points="40.93 17.36 40.93 2.64 43.9 2.64 43.9 14.62 51.37 14.62 51.37 17.36 40.93 17.36"/><polygon points="53.5 17.36 53.5 2.64 56.54 2.64 63.34 12.6 63.34 2.64 66.31 2.64 66.31 17.36 63.36 17.36 56.47 7.51 56.47 17.36 53.5 17.36"/><polygon points="68.36 17.36 68.36 2.64 78.96 2.64 78.96 5.41 71.33 5.41 71.33 8.73 77.88 8.73 77.88 11.39 71.33 11.39 71.33 14.62 78.96 14.62 78.96 17.36 68.36 17.36"/><polygon points="85.91 17.36 85.91 5.41 81.42 5.41 81.42 2.64 93.42 2.64 93.42 5.41 88.91 5.41 88.91 17.36 85.91 17.36"/><rect x="101.23" width="2.77" height="20"/></svg>