<svg xmlns="http://www.w3.org/2000/svg" width="160" height="64" viewBox="0 0 160 64"><path fill="#136bb5" fill-rule="evenodd" d="M63.55 57.95s10-16.4 11.8-24.1c1.8-7.7 2-11.8-5-12.5-7.1-.7-15.2 0-15.2 0s11.2-7.2 26.1-6.6c15 .4 23.6 6.6 23.6 6.6s-3.2 1.3-8.4 1.6c-5.2.5-7.1 1.6-6.8 7.5.4 5.9 2.5 10 2.5 10s-8.4-5.5-13.6 0-6.2 8-9.3 11.6c-2.8 3.6-5.7 5.9-5.7 5.9Z"/><path fill="#f8a81b" fill-rule="evenodd" d="M80 .05c3.6 0 6.4 2.9 6.4 6.4s-2.9 6.4-6.4 6.4-6.4-2.9-6.4-6.4c-.1-3.5 3-6.4 6.4-6.4Z"/><path fill="#fff" fill-rule="evenodd" d="M3.9 41.85c-.2 1.1 0 3.4.5 4.6.9 2.1 2.7 3.2 5 3.2 2.7 0 4.6-.9 5.9-1.8l.5 3.2c-1.6 1.1-4.3 2-7.3 2-5.9 0-8.4-4.5-8.4-9.8 0-7.5 5-15.7 12.1-15.7 4.3 0 6.6 2.9 6.6 6.3-.2 6.4-6.7 8.2-14.9 8Zm7.7-11c-3.6 0-6.2 3.9-7.3 7.9 5.9 0 10.7-.9 10.7-4.6 0-2.3-1.4-3.3-3.4-3.3Zm25.9 10.5c-.7 4.3-1.1 8.6-.9 11.4H33c0-1.4.2-3.8.5-6.4h-.2c-2.5 5-5.5 7-8.6 7-3.9 0-6.4-3.4-6.4-8.2 0-8.6 5.7-17.5 15.4-17.5 2.1 0 4.5.4 5.9.9l-2.1 12.8Zm-4.6-10.5c-5.7 0-10.4 6.6-10.5 13.4 0 2.7.9 5.4 3.8 5.4 3.2 0 7-4.6 8-11.1l1.2-7.5c-.4-.1-1.3-.2-2.5-.2Zm20.8 1c-.7-.5-2.1-1.1-3.9-1.1-2.3 0-3.9 1.6-3.9 3.8 0 1.8 1.1 2.9 3 4.1 2.5 1.6 4.1 3.8 4.1 6.4 0 5.2-3.7 8-8.6 8-2.3 0-4.5-.9-5.5-1.6l1.1-3c1.1.7 3 1.6 4.8 1.6 2.5 0 4.3-1.8 4.3-3.9s-.7-3-3-4.5c-2.5-1.6-3.9-3.8-3.9-6.3 0-4.3 3.4-7.7 8-7.7 2 0 3.8.5 4.6 1.3l-1.1 2.9Zm13.1 14.9c-2.3 5.4-4.6 9.7-7.7 12.9-2.5 2.9-5.2 3.9-6.4 4.3l-.9-3.6c.9-.4 2.5-1.1 4.1-2.3 1.4-1.3 3-3.2 4.3-5.7.2-.4.2-.7.2-1.1l-4.5-23.1h3.9l2.2 13.2c.5 2.9.7 4.6 1.1 6.4h.2c.5-1.6 1.2-3.2 2.3-6.1l5.7-13.8H75l-8.2 18.9Zm38.4 6.4c-2.3 0-3.9-.5-4.8-1.1h-.2l-1.8 10.5h-3.7l4.5-25.9c.5-3 .9-6.3 1.2-8.8h3.4l-.7 4.6h.2c2-3.2 5-5.2 7.9-5.2 4.8 0 6.8 4.3 6.8 8.9 0 8.9-5.5 17-12.8 17Zm4.6-22.2c-3 0-6.8 3.8-7.9 10.7l-1.1 6.8c.9.9 2.5 1.4 4.3 1.4 4.8 0 8.9-6.8 8.9-13.2.1-2.6-1-5.7-4.2-5.7Zm27.7 10.4c-.7 4.3-1.1 8.6-.9 11.4H133c0-1.4.2-3.8.5-6.4h-.2c-2.5 5-5.4 7-8.6 7-3.9 0-6.4-3.4-6.4-8.2 0-8.6 5.7-17.5 15.4-17.5 2.1 0 4.5.4 5.9.9l-2.1 12.8Zm-4.6-10.6c-5.7 0-10.4 6.6-10.4 13.4 0 2.7.9 5.4 3.8 5.4 3.2 0 7-4.6 8-11.1l1.2-7.5c-.5 0-1.4-.2-2.6-.2Zm18.9 16c-2.3 5.4-4.6 9.7-7.7 12.9-2.5 2.9-5.2 3.9-6.4 4.3l-.9-3.6c.9-.4 2.5-1.1 4.1-2.3 1.4-1.3 3-3.2 4.3-5.7.2-.4.2-.7.2-1.1l-4.5-23.1h3.9l2.1 13.2c.5 2.9.7 4.6 1.1 6.4h.2c.5-1.6 1.2-3.2 2.3-6.1l5.5-13.8h3.9l-8.1 18.9Z"/></svg>