<svg xmlns="http://www.w3.org/2000/svg" width="84" height="64" fill="none" viewBox="0 0 84 64"><g clip-path="url(#a)"><mask id="b" width="84" height="64" x="0" y="0" maskUnits="userSpaceOnUse" style="mask-type:luminance"><path fill="#fff" d="M83.63 0h-83v64h83V0Z"/></mask><g mask="url(#b)"><path fill="#FCFCFC" d="M15.72 63.68v-4.23c0-1.63-1-2.69-2.7-2.69-.86 0-1.79.29-2.43 1.2a2.5 2.5 0 0 0-2.27-1.2 2.3 2.3 0 0 0-2 1v-.86h-1.5v6.78h1.5v-3.74c0-1.2.64-1.77 1.64-1.77 1 0 1.5.64 1.5 1.77v3.74h1.49v-3.74c0-1.2.71-1.77 1.64-1.77 1 0 1.5.64 1.5 1.77v3.74h1.63Zm22.13-6.78h-2.42v-2.04h-1.5v2.04H32.6v1.35h1.35v3.1c0 1.56.64 2.47 2.35 2.47a4 4 0 0 0 1.85-.5l-.43-1.26c-.43.28-.92.35-1.28.35-.71 0-1-.42-1-1.13v-3.03h2.42V56.9Zm12.67-.14c-.85 0-1.42.43-1.78 1v-.86h-1.5v6.78h1.5v-3.81c0-1.13.5-1.77 1.43-1.77.28 0 .64.08.92.15l.43-1.42a4.72 4.72 0 0 0-1-.07Zm-19.14.7a4.98 4.98 0 0 0-2.78-.7c-1.7 0-2.85.85-2.85 2.2 0 1.12.86 1.76 2.35 1.97l.71.07c.79.14 1.21.35 1.21.7 0 .5-.57.85-1.56.85-1 0-1.78-.35-2.28-.7l-.71 1.13c.78.56 1.85.84 2.92.84 1.99 0 3.13-.91 3.13-2.19 0-1.2-.93-1.83-2.35-2.04l-.71-.07c-.64-.07-1.14-.22-1.14-.64 0-.5.5-.78 1.28-.78.85 0 1.7.36 2.14.57l.64-1.2Zm39.71-.7c-.85 0-1.42.43-1.78 1v-.86h-1.5v6.78h1.5v-3.81c0-1.13.5-1.77 1.42-1.77.29 0 .65.08.93.15l.43-1.42c-.29-.07-.71-.07-1-.07ZM52.02 60.3c0 2.05 1.42 3.53 3.63 3.53 1 0 1.7-.2 2.42-.77l-.72-1.2a2.9 2.9 0 0 1-1.77.63c-1.21 0-2.07-.85-2.07-2.19a2.1 2.1 0 0 1 2.07-2.19c.64 0 1.2.22 1.77.64l.72-1.2a3.56 3.56 0 0 0-2.42-.78c-2.21 0-3.63 1.49-3.63 3.53Zm13.8 0v-3.4h-1.49v.85a2.58 2.58 0 0 0-2.14-.99 3.4 3.4 0 0 0-3.41 3.53 3.4 3.4 0 0 0 3.41 3.53c1 0 1.71-.35 2.14-.99v.85h1.5V60.3Zm-5.48 0c0-1.2.79-2.19 2.07-2.19 1.2 0 2.06.92 2.06 2.2 0 1.2-.85 2.18-2.06 2.18a2.09 2.09 0 0 1-2.07-2.19Zm-17.86-3.53c-2 0-3.42 1.41-3.42 3.53s1.43 3.53 3.49 3.53c1 0 2-.28 2.78-.91l-.72-1.06c-.56.42-1.28.7-1.99.7-.92 0-1.85-.42-2.06-1.62h5.05v-.57c.07-2.19-1.2-3.6-3.13-3.6Zm0 1.27c.92 0 1.57.57 1.7 1.63h-3.55c.14-.92.78-1.63 1.85-1.63Zm37.08 2.26v-6.07h-1.5v3.53a2.58 2.58 0 0 0-2.13-.99 3.4 3.4 0 0 0-3.42 3.53 3.4 3.4 0 0 0 3.42 3.53c1 0 1.7-.35 2.14-.99v.85h1.5V60.3Zm-5.48 0c0-1.2.78-2.19 2.06-2.19 1.21 0 2.07.92 2.07 2.2 0 1.2-.86 2.18-2.07 2.18a2.09 2.09 0 0 1-2.06-2.19Zm-49.96 0v-3.4h-1.5v.85a2.58 2.58 0 0 0-2.13-.99 3.4 3.4 0 0 0-3.42 3.53 3.4 3.4 0 0 0 3.42 3.53c1 0 1.7-.35 2.13-.99v.85h1.5V60.3Zm-5.56 0c0-1.2.79-2.19 2.07-2.19 1.2 0 2.06.92 2.06 2.2 0 1.2-.85 2.18-2.06 2.18a2.09 2.09 0 0 1-2.07-2.19Z"/><path fill="#FF5F00" d="M30.88 5.44H53.3V45.4H30.88V5.44Z"/><path fill="#EB001B" d="M32.3 25.42a25.4 25.4 0 0 1 9.76-19.98A25.6 25.6 0 0 0 26.26 0 25.5 25.5 0 0 0 .63 25.42a25.5 25.5 0 0 0 25.63 25.41 25.6 25.6 0 0 0 15.8-5.43 25.3 25.3 0 0 1-9.75-19.98Z"/><path fill="#F79E1B" d="M83.55 25.42a25.5 25.5 0 0 1-25.62 25.41 25.6 25.6 0 0 1-15.8-5.43 25.2 25.2 0 0 0 9.75-19.98 25.4 25.4 0 0 0-9.76-19.98A25.6 25.6 0 0 1 57.92 0a25.55 25.55 0 0 1 25.63 25.42Z"/></g></g><defs><clipPath id="a"><path fill="#fff" d="M.63 0h83v64h-83z"/></clipPath></defs></svg>