<svg xmlns="http://www.w3.org/2000/svg" width="103" height="64" fill="none" viewBox="0 0 103 64"><g clip-path="url(#a)"><path fill="#FCFCFC" d="M8.63 12h87v36h-87z"/><path fill="#1A1E71" d="M4.71 0A4.07 4.07 0 0 0 .63 4.05v55.5a4.07 4.07 0 0 0 4.08 4.04h93.84a4.07 4.07 0 0 0 4.08-4.05V4.05A4.07 4.07 0 0 0 98.55 0H4.71Zm56.84 18.95c2.48 0 4.47.55 5.74 1.05l-.86 5.42-.58-.29c-1.18-.5-2.7-1-4.8-.96-2.5 0-3.66 1.11-3.66 2.15-.01 1.17 1.36 1.94 3.6 3.1 3.69 1.78 5.4 3.94 5.37 6.79-.05 5.18-4.42 8.53-11.15 8.53-2.87-.03-5.64-.63-7.13-1.33l.9-5.6.82.4c2.1.94 3.47 1.32 6.03 1.32 1.84 0 3.82-.77 3.83-2.44.01-1.1-.82-1.88-3.32-3.1-2.42-1.2-5.64-3.2-5.6-6.8.03-4.85 4.49-8.24 10.81-8.24Zm-51.9.8H20c1.4.05 2.52.5 2.9 2l2.23 11.41.67 3.43 6.28-16.84h6.79L28.76 44.4h-6.78l-5.4-19.89c3.22 1.7 5.95 3.65 7.54 6.34a18.1 18.1 0 0 0-1.64-2.76c-.8-1.1-2.53-2.53-3.26-3.13a24.25 24.25 0 0 0-9.65-4.72l.08-.5Zm31.9.03h6.65l-4.16 24.6H37.4l4.16-24.6Zm37.5 0h5.04l5.26 24.6h-6.03s-.6-2.82-.8-3.68l-8.33-.01-1.37 3.7h-6.83l9.66-22.57c.68-1.6 1.85-2.04 3.4-2.04Zm.5 6.62c-.32.91-.9 2.39-.86 2.32l-2.57 6.82h5.37l-1.5-7.04-.44-2.1Z"/></g><defs><clipPath id="a"><path fill="#fff" d="M.63 0h102v64H.63z"/></clipPath></defs></svg>