<svg xmlns="http://www.w3.org/2000/svg" width="128" height="128" viewBox="0 0 128 128" fill="#41d182"><path d="M85.6 84.78a1.3 1.3 0 0 0-1.29.03l-9.77 5.63c-.27.18-.5.43-.65.72-.15.29-.24.62-.24.94v4.19c0 .54.23.99.64 1.23.19.11.4.17.62.17s.46-.06.69-.19l9.71-5.61.08-.05a2.04 2.04 0 0 0 .85-1.65V86c0-.54-.24-.99-.65-1.22Zm-1.36 5.43-8.6 4.97-.04-3.05 8.65-4.98v3.06Zm16.58-14.11a1.29 1.29 0 0 0-1.3.03l-9.71 5.61-.08.05a2.04 2.04 0 0 0-.85 1.65v4.19c0 .54.24.99.65 1.22.19.11.4.16.61.16.23 0 .46-.06.68-.19l9.71-5.59.08-.05a2.11 2.11 0 0 0 .86-1.65v-4.2c0-.53-.24-.99-.65-1.22Zm-1.35 5.43-8.57 4.95.02-3.07 8.57-4.95v3.07ZM64.9 91.36v15.43c0 .55-.45 1-1 1s-1-.45-1-1V91.36c0-.55.45-1 1-1s1 .45 1 1ZM15.03 53.82l46.44 26.27c.82.46 1.76.7 2.71.7h.01c.95 0 1.89-.25 2.72-.72l46.06-26.48a3.2 3.2 0 0 0 1.64-2.78 3.17 3.17 0 0 0-1.63-2.78L66.53 21.77a5.63 5.63 0 0 0-5.43 0L15.03 48.25a3.2 3.2 0 0 0-1.64 2.78 3.17 3.17 0 0 0 1.63 2.78Zm.53-3.39c.11-.18.26-.34.46-.44l46.06-26.48a3.6 3.6 0 0 1 3.46 0L112 49.77a1.19 1.19 0 0 1 .61 1.05c0 .22-.06.42-.16.61-.11.18-.26.33-.46.44L65.93 78.36a3.52 3.52 0 0 1-3.46.01L16.03 52.1a1.19 1.19 0 0 1-.61-1.05c0-.22.06-.42.16-.61Zm109.91.73a3.7 3.7 0 0 0-.48-2.36 3.86 3.86 0 0 0-1.39-1.39L67.39 15.35a6.68 6.68 0 0 0-6.54 0L4.4 47.88a3.76 3.76 0 0 0-1.88 3.51l-.01.06v26.13c0 .08.03.15.05.23 0 .07-.02.14 0 .21a3.7 3.7 0 0 0 1.83 2.55l56.19 32.06a6.56 6.56 0 0 0 6.54 0L123.6 80.1a3.83 3.83 0 0 0 1.66-1.91c.22-.57.29-1.18.23-1.77V51.17ZM4.74 50.27c.16-.27.38-.5.66-.65l56.45-32.54a4.66 4.66 0 0 1 4.55 0l56.2 32.06c.27.16.5.38.66.65.16.28.24.59.24.9l-.03.22c-.03.24-.09.46-.21.66-.16.27-.39.5-.66.66L66.11 84.75a4.53 4.53 0 0 1-4.51.01L11.91 56.41l-6.51-3.7a1.76 1.76 0 0 1-.9-1.55c0-.32.08-.62.24-.9Zm117.85 28.1L66.11 110.9a4.66 4.66 0 0 1-4.55 0L5.36 78.84a1.67 1.67 0 0 1-.85-1.18l-.01-.04V54.5l56.09 32c.99.56 2.11.85 3.24.85h.01c1.14 0 2.26-.3 3.25-.87l56.37-32.44v21.49a.92.92 0 0 0-.05.73c.04.13.04.26.05.39V77c-.02.15-.04.31-.09.45-.15.38-.43.7-.79.91Zm-6.03-7.4a6.03 6.03 0 0 1-2.73 4.76c-.62.35-1.15.47-1.58.47-.49 0-.85-.15-1.08-.28-.73-.42-1.15-1.26-1.15-2.3 0-.55.45-1 1-1s1 .45 1 1c0 .37.1.55.15.58.04.03.25.05.62-.17a4.04 4.04 0 0 0 1.78-3.11c0-.29-.1-.48-.16-.51-.07-.04-.3-.03-.64.16a1 1 0 0 1-.98-1.74c.93-.52 1.89-.57 2.62-.14.73.42 1.14 1.26 1.14 2.29Zm-90.02 6.27v6.53c0 .55-.45 1-1 1s-1-.45-1-1v-6.53c0-.55.45-1 1-1s1 .45 1 1Zm4.44 2.56v6.53c0 .55-.45 1-1 1s-1-.45-1-1V79.8c0-.55.45-1 1-1s1 .45 1 1Zm4.44 2.55v6.53c0 .55-.45 1-1 1s-1-.45-1-1v-6.53c0-.55.45-1 1-1s1 .45 1 1Zm4.44 2.56v6.54c0 .55-.45 1-1 1s-1-.45-1-1v-6.54c0-.55.45-1 1-1s1 .45 1 1Z"/></svg>