<svg xmlns="http://www.w3.org/2000/svg" width="82" height="24" viewBox="0 0 82 24"><defs><linearGradient id="linear-gradient" x1="-.58" y1="25.67" x2="9.96" y2="7.42" gradientTransform="translate(0 26) scale(1 -1)" gradientUnits="userSpaceOnUse"><stop offset=".4" stop-color="#fff"/><stop offset=".52" stop-color="#f6f6f6"/><stop offset=".71" stop-color="#dddedf"/><stop offset=".95" stop-color="#b6b7b9"/><stop offset="1" stop-color="#adaeb1"/></linearGradient></defs><g class="text" fill="#fcfcfc"><path d="m32.91,9.84c-.45,0-.85.13-1.2.39-.35.26-.59.63-.74,1.14h-.08v-1.41h-2.17v8.08h2.24v-4.57c0-.33.07-.62.22-.87.15-.25.35-.45.61-.59.26-.14.55-.22.88-.22.15,0,.32.01.51.04.19.02.33.05.44.08v-1.99c-.1-.02-.21-.04-.34-.06-.13-.01-.25-.02-.36-.02Z"/><path d="m25.5,7.74c-.58-.31-1.27-.47-2.09-.47h-4.25v10.77h2.28v-3.49h1.91c.83,0,1.53-.15,2.11-.46.59-.31,1.03-.73,1.34-1.28s.46-1.18.46-1.89-.15-1.35-.46-1.89c-.3-.55-.74-.98-1.31-1.29Zm-.79,4.12c-.14.27-.35.48-.64.64-.28.15-.65.23-1.08.23h-1.55v-3.59h1.54c.44,0,.81.08,1.09.23.29.15.5.36.64.63.14.27.22.58.22.94s-.07.67-.22.94Z"/><path d="m40.16,10.38c-.59-.35-1.3-.53-2.11-.53s-1.52.18-2.12.53c-.59.35-1.05.83-1.37,1.46-.32.62-.48,1.35-.48,2.19s.16,1.56.48,2.18c.32.62.78,1.11,1.37,1.46.6.35,1.3.52,2.12.52s1.52-.17,2.11-.52c.6-.35,1.06-.84,1.38-1.46.32-.63.48-1.36.48-2.18s-.16-1.56-.48-2.19c-.32-.63-.78-1.12-1.38-1.46Zm-.61,4.89c-.13.37-.31.66-.56.87-.25.21-.56.32-.93.32s-.69-.11-.95-.32c-.25-.21-.44-.51-.57-.87-.13-.37-.19-.79-.19-1.26s.06-.89.19-1.26c.13-.37.32-.66.57-.87.26-.21.57-.32.95-.32s.68.11.93.32c.25.21.44.5.56.87.13.37.19.79.19,1.26s-.06.89-.19,1.26Z"/><path d="m53.03,6.65c-.33,0-.62.11-.86.34-.23.22-.35.49-.35.79s.12.58.35.8c.24.22.52.33.86.33s.62-.11.85-.33c.24-.22.36-.49.36-.8s-.12-.57-.36-.79c-.23-.22-.52-.34-.85-.34Z"/><path d="m71.64,10.88c-.34-.34-.75-.59-1.21-.76-.46-.17-.96-.26-1.49-.26-.79,0-1.48.18-2.07.53-.59.35-1.04.84-1.36,1.47-.32.63-.48,1.36-.48,2.19s.16,1.59.48,2.21c.32.62.78,1.1,1.38,1.44.6.34,1.32.5,2.15.5.67,0,1.25-.1,1.76-.31.51-.21.93-.49,1.25-.86.33-.37.54-.81.65-1.3l-2.07-.14c-.08.2-.19.38-.34.52-.15.14-.32.25-.53.32-.21.07-.43.11-.68.11-.38,0-.7-.08-.97-.24-.27-.16-.49-.38-.64-.67-.15-.29-.22-.64-.22-1.04h0s5.5,0,5.5,0v-.62c0-.69-.1-1.29-.29-1.8-.19-.52-.46-.94-.81-1.28Zm-4.39,2.31c.01-.29.08-.56.22-.79.15-.26.35-.47.61-.63.26-.16.56-.24.9-.24s.61.07.86.22c.25.14.44.33.58.58.14.25.21.53.21.86h-3.38Z"/><polygon points="78.89 14 81.23 9.96 78.94 9.96 77.42 12.78 75.93 9.96 73.62 9.96 75.93 14 73.53 18.04 75.85 18.04 77.42 15.25 79.01 18.04 81.3 18.04 78.89 14"/><rect x="51.9" y="9.96" width="2.24" height="8.08"/><path d="m61.27,11.32h-.07c-.1-.22-.24-.44-.43-.66-.19-.23-.43-.42-.74-.57-.3-.15-.68-.23-1.13-.23-.59,0-1.14.15-1.64.46-.49.31-.89.77-1.19,1.38-.3.61-.45,1.38-.45,2.31s.14,1.66.43,2.28c.29.62.68,1.09,1.18,1.4.5.32,1.05.47,1.67.47.43,0,.8-.07,1.1-.22.31-.14.55-.32.74-.54.19-.22.34-.44.45-.67h.09v1.29h2.21V7.27h-2.24v4.05Zm-.16,3.94c-.13.36-.33.64-.58.84-.25.2-.55.29-.92.29s-.68-.1-.93-.3c-.25-.2-.44-.48-.57-.84-.13-.36-.19-.78-.19-1.25s.06-.88.19-1.23c.13-.35.32-.63.57-.83.25-.2.56-.3.93-.3s.67.1.92.29c.25.19.45.47.58.82.13.35.2.77.2,1.25s-.07.9-.21,1.26Z"/><polygon points="46.71 15.74 46.62 15.74 44.95 9.96 42.58 9.96 45.4 18.04 47.93 18.04 50.75 9.96 48.38 9.96 46.71 15.74"/></g><g id="icon"><path d="m3.16,0H0v6.32h3.16c2.28,0,4.13,1.85,4.13,4.13s-1.85,4.13-4.13,4.13c-1.75,0-3.16,1.42-3.16,3.16s1.41,3.16,3.16,3.16c5.76,0,10.45-4.69,10.45-10.44S8.92,0,3.16,0Z" fill="url(#linear-gradient)"/><path d="m3.16,13.54c1.71,0,3.09-1.38,3.09-3.09s-1.38-3.09-3.09-3.09S.07,8.74.07,10.44s1.38,3.09,3.09,3.09Z" fill="#fff"/><path d="m6.32,24v-6.27c0-1.74-1.41-3.16-3.16-3.16s-3.16,1.41-3.16,3.16v6.27h6.32Z" fill="#c2c5c7"/><path d="m3.16,14.58c-1.75,0-3.16,1.41-3.16,3.16s1.41,3.16,3.16,3.16c1.1,0,2.16-.17,3.16-.49v-2.67c0-1.74-1.41-3.16-3.16-3.16h0Z" fill="#fff"/></g></svg>
