<svg xmlns="http://www.w3.org/2000/svg" width="141" height="48" viewBox="0 0 141 48"><defs><linearGradient id="b" x1="3.48" x2="3.48" y1="32.84" y2="25.97" gradientTransform="matrix(1 0 0 -1 0 50)" gradientUnits="userSpaceOnUse"><stop offset="0" stop-color="#56d797"/><stop offset="1" stop-color="#3dcf7e"/></linearGradient><linearGradient id="c" x1="25.31" x2="25.31" y1="49.99" y2="17.01" gradientTransform="matrix(1 0 0 -1 0 50)" gradientUnits="userSpaceOnUse"><stop offset="0" stop-color="#56d797"/><stop offset="1" stop-color="#3dcf7e"/></linearGradient><linearGradient id="d" x1="89.54" x2="89.54" y1="24.44" y2="2.34" gradientTransform="matrix(1 0 0 -1 0 50)" gradientUnits="userSpaceOnUse"><stop offset="0" stop-color="#56d797"/><stop offset="1" stop-color="#3dcf7e"/></linearGradient><linearGradient id="e" x1="132.61" x2="132.61" y1="24.44" y2="2.34" gradientTransform="matrix(1 0 0 -1 0 50)" gradientUnits="userSpaceOnUse"><stop offset="0" stop-color="#56d797"/><stop offset="1" stop-color="#3dcf7e"/></linearGradient><linearGradient id="f" x1="113.48" x2="113.48" y1="24.44" y2="2.34" gradientTransform="matrix(1 0 0 -1 0 50)" gradientUnits="userSpaceOnUse"><stop offset="0" stop-color="#56d797"/><stop offset="1" stop-color="#3dcf7e"/></linearGradient><clipPath id="a"><path fill="none" d="M0 0h141v48H0z"/></clipPath></defs><g clip-path="url(#a)"><path fill="url(#b)" fill-rule="evenodd" d="M3.48 24.03c1.92 0 3.48-1.54 3.48-3.43s-1.56-3.43-3.48-3.43S0 18.71 0 20.6s1.56 3.43 3.48 3.43Zm0-2.11c.74 0 1.34-.59 1.34-1.32s-.6-1.32-1.34-1.32-1.34.59-1.34 1.32.6 1.32 1.34 1.32Z"/><path fill="url(#c)" d="M21.73.32a1.5 1.5 0 0 0-2.41 1.13c-.13 7.92 4.36 12.51 8.45 15.13.46.29.92.56 1.36.81l-3.31-.41c-3.91-.5-8.35-.91-11.8-.84a10 10 0 0 0-9.98 9.93c0 2.46.94 4.7 2.43 6.44.54.59 1.48.66 2.09.13.61-.52.7-1.43.19-2.03a6.98 6.98 0 0 1-1.71-4.54c0-3.85 3.26-6.93 7.22-7 3-.05 7.12.32 11.16.84 1.98.26 3.93.5 5.62.61 1.63.11 3.33.08 4.51-.31a1.58 1.58 0 0 0 1.12-1.75c-.07-.45-.32-.73-.45-.89l-.06-.06a1.53 1.53 0 0 0-.4-.29 15.8 15.8 0 0 0-1.55-.71c-1.26-.53-3-1.27-4.79-2.43-2.96-1.85-5.94-4.75-6.83-9.4l19.7 15c.78.53 1.34 1.4 1.34 2.19h-.03c0 1.47-1.11 2.52-2.35 2.48-4.87-.21-8.4-.24-11.08.55-2.86.87-4.63 2.64-6.15 5.54-.37.71-.08 1.64.64 2.01.72.37 1.63.08 2.01-.63 1.26-2.43 2.49-3.51 4.36-4.09 2.08-.63 5.1-.66 10.09-.45a5.34 5.34 0 0 0 5.48-5.41 5.82 5.82 0 0 0-2.57-4.59L21.73.32Z"/><path fill="url(#d)" d="M96.08 47.66 83.42 31.77v12.25a3.67 3.67 0 0 1-3.69 3.64v-22.1h3.24L95.6 41.43v-12.2a3.7 3.7 0 0 1 3.75-3.67v22.1h-3.26Z"/><path fill="url(#e)" d="M130.75 47.66V29.05h-6.53v-3.49h13.24a3.5 3.5 0 0 1 3.53 3.49h-6.55v18.61h-3.69Z"/><path fill="url(#f)" d="M106.73 47.66v-22.1h13.51c0 .63-.16 1.24-.48 1.74a3.58 3.58 0 0 1-3.08 1.74h-6.26v5.68h4.36a3.5 3.5 0 0 1 3.53 3.49h-7.92v5.97h6.26a3.5 3.5 0 0 1 3.53 3.49h-13.46Z"/><path fill="#fff" d="M54.26 47.97a7.11 7.11 0 0 1-5.43-2.38c-1.44-1.58-2.19-3.49-2.19-5.73s.72-4.15 2.19-5.73a7.15 7.15 0 0 1 8.4-1.67c.91.45 1.61 1 2.09 1.69v-2.09h3.48v15.55h-3.48v-2.09a5.98 5.98 0 0 1-2.09 1.72c-.91.48-1.9.71-2.97.71Zm-2.76-4.54c.88.95 2.01 1.43 3.4 1.43s2.49-.48 3.4-1.43c.88-.95 1.34-2.14 1.34-3.54s-.45-2.59-1.34-3.54-2.01-1.43-3.4-1.43-2.49.48-3.4 1.43c-.88.95-1.34 2.14-1.34 3.54s.45 2.56 1.34 3.54Zm17.9 4.23V27.75c0-1.9 1.55-3.43 3.48-3.43v19.91a3.43 3.43 0 0 1-3.48 3.43Z"/><path fill="#fff" fill-rule="evenodd" d="M34.67 47.97a8.2 8.2 0 0 1-5.94-2.27c-1.55-1.5-2.3-3.46-2.3-5.81s.78-4.22 2.35-5.76a7.98 7.98 0 0 1 5.91-2.32c2.19 0 4.01.69 5.43 2.06 1.44 1.37 2.19 3.25 2.19 5.65 0 .42 0 .79-.03 1.11H29.84a4.3 4.3 0 0 0 1.5 3.09 5.08 5.08 0 0 0 3.34 1.16h1.34l-1.36 3.09Zm4.09-9.85h-8.8a4.12 4.12 0 0 1 1.61-2.56 4.97 4.97 0 0 1 5.7.02 3.84 3.84 0 0 1 1.5 2.53Z"/><path fill="#fff" d="M7.71 35.88c-.83 0-1.5.66-1.5 1.48v7A3.68 3.68 0 0 0 9.9 48v-9.19h2.13L19.77 48h4.52l-8.16-9.77a7.07 7.07 0 0 0 4.31-6.49v-.4a7.17 7.17 0 0 0-7.17-6.71v.03a7.12 7.12 0 0 0-7.17 6.89c-.03.82.62 1.48 1.44 1.5.83.03 1.5-.61 1.53-1.43.05-2.24 1.93-4.04 4.2-4.04s4.07 1.74 4.2 3.91v.24c0 2.3-1.87 4.15-4.2 4.15H7.7Z"/></g></svg>