<svg xmlns="http://www.w3.org/2000/svg" width="92" height="92" viewBox="0 0 92 92" fill="#41D182"><path fill-rule="evenodd" d="M74.29 17.53c.17.02.33.1.46.22a.8.8 0 0 1 .24.46c.03.18 0 .36-.09.51L60.12 47.05c-.07.13-.17.24-.29.31s-.27.12-.41.12a.8.8 0 0 1-.72-.45.78.78 0 0 1-.05-.58l4.16-14.86-3.88 2.26a.74.74 0 0 1-.46.1.8.8 0 0 1-.71-.56.84.84 0 0 1-.01-.47l4.71-16.52c.06-.2.19-.37.37-.48l8.28-4.82a.81.81 0 0 1 .48-.11c.17.02.33.08.45.2.13.11.22.26.25.43.04.17.02.34-.04.5l-3.37 8.35 4.91-2.84a.78.78 0 0 1 .5-.1ZM64.9 30.12l-2.62 9.32 9.92-18.98-4.54 2.64a.83.83 0 0 1-.93-.09.8.8 0 0 1-.26-.43.78.78 0 0 1 .04-.5l3.41-8.39-5.97 3.47-4.11 14.27 3.86-2.25c.14-.08.3-.12.46-.11a.81.81 0 0 1 .71.56c.05.15.05.32 0 .48ZM23.47 27.4a5.83 5.83 0 0 0 1.86 4.86.8.8 0 0 0 1.14 0 .76.76 0 0 0 .24-.57.81.81 0 0 0-.06-.31.68.68 0 0 0-.18-.26 4.15 4.15 0 0 1-1.4-3.52c.2-1.47 1.35-2.89 3.21-3.98 4.7-2.72 12.38-2.7 17.12 0 2.15 1.24 3.33 2.84 3.33 4.5s-1.17 3.24-3.28 4.44c-3.21 1.83-7.84 2.48-12.19 1.69a.86.86 0 0 0-.32 0 .84.84 0 0 0-.63.98.8.8 0 0 0 .36.51c.09.06.19.1.3.12 1.31.23 2.64.35 3.97.35 3.25.08 6.47-.67 9.34-2.19 2.64-1.52 4.08-3.59 4.08-5.85s-1.47-4.36-4.14-5.91c-5.18-2.99-13.58-3-18.73 0-2.32 1.32-3.76 3.16-4.03 5.14Zm25.14 13.75c-.12-.07-.26-.11-.4-.11s-.28.04-.4.11a22.77 22.77 0 0 1-7.57 2.17.78.78 0 0 0-.51.27.82.82 0 0 0-.2.54v30.4c0 .21.08.42.24.57a.8.8 0 0 0 .57.24h.09a23.99 23.99 0 0 0 8.11-2.33.84.84 0 0 0 .32-.3.79.79 0 0 0 .12-.42V41.84a.86.86 0 0 0-.09-.39.86.86 0 0 0-.27-.3Zm-1.22 15.88a22.22 22.22 0 0 1-6.23 1.83v-6.12a25 25 0 0 0 6.23-1.69v5.98Zm-6.23 3.48a25 25 0 0 0 6.23-1.69v5.12a23 23 0 0 1-6.23 1.83v-5.26Zm0-15.71a25 25 0 0 0 6.23-1.69v6.15a22.65 22.65 0 0 1-6.23 1.83V44.8Zm0 28.76v-6.14c2.14-.29 4.23-.85 6.23-1.68v6.01c-1.98.9-4.08 1.51-6.23 1.81Zm8.2-51.91a.79.79 0 0 0-.91.03.8.8 0 0 0-.31.55.85.85 0 0 0 .18.61.7.7 0 0 0 .25.2c2.97 1.72 4.6 3.96 4.64 6.3v.15c0 2.32-1.66 4.52-4.56 6.21-6.43 3.73-16.87 3.72-23.37-.05-2.99-1.74-4.64-4-4.64-6.37s1.61-4.57 4.57-6.29c.17-.11.3-.29.35-.49a.8.8 0 0 0-.55-.97.79.79 0 0 0-.6.06c-3.46 2.02-5.38 4.74-5.38 7.69v41.06c.06 2.91 1.99 5.62 5.44 7.62a25.46 25.46 0 0 0 12.56 3.03c4.32.09 8.6-.94 12.41-2.98 3.46-2.02 5.37-4.74 5.37-7.68v-40.9c.02-2.97-1.91-5.72-5.42-7.77Zm3.83 14.41v34.2c0 2.36-1.61 4.61-4.56 6.35-6.43 3.73-16.87 3.72-23.37-.05-2.97-1.72-4.61-3.97-4.64-6.31v-36.5a12.62 12.62 0 0 0 3.84 3.29 25.48 25.48 0 0 0 12.56 3.02c4.33.09 8.6-.93 12.42-2.98a12.7 12.7 0 0 0 3.76-3.24l-.02 2.22ZM36.88 22.32a8.7 8.7 0 0 1 3.97.96 3.26 3.26 0 0 1 1.89 2.77V29a3.22 3.22 0 0 1-1.87 2.79 8.6 8.6 0 0 1-7.94 0 3.33 3.33 0 0 1-1.9-2.76v-3.17a3.46 3.46 0 0 1 1.86-2.59 8.7 8.7 0 0 1 3.97-.96Zm4.02 6.48c-1.5.79-3.2 1.1-4.88.91a.8.8 0 0 1-.73-.88.81.81 0 0 1 .88-.73 6.9 6.9 0 0 0 3.92-.7c.67-.39 1.06-.87 1.06-1.34s-.39-.97-1.08-1.37a7.27 7.27 0 0 0-6.34 0c-.26.11-.49.29-.67.51-.18.22-.31.48-.38.76v3.08c0 .47.4.97 1.09 1.37a7.06 7.06 0 0 0 6.32 0c.68-.39 1.06-.89 1.06-1.37v-.37l-.26.16Z"/></svg>