<svg xmlns="http://www.w3.org/2000/svg" width="92" height="92" viewBox="0 0 92 92" fill="#41D182"><path d="M43.83 44.99a1 1 0 0 1-.1-1.41c.65-.76 1.36-1.47 2.1-2.1a1 1 0 1 1 1.3 1.52c-.66.57-1.29 1.2-1.89 1.89a1 1 0 0 1-1.41.1Zm29.68 3.3a1 1 0 0 0 1.11-.88c.06-.53.11-1.07.11-1.61 0-1.51-.3-2.83-.91-3.88a1 1 0 1 0-1.73.99c.39.68.65 1.64.65 2.89 0 .44-.04.89-.09 1.38a1 1 0 0 0 .87 1.11Zm-8.39-8.7c-.77.45-1.53 1-2.23 1.63a1 1 0 1 0 1.34 1.48 11.3 11.3 0 0 1 1.88-1.38c2.38-1.37 4.08-1.03 5 0a1 1 0 1 0 1.49-1.33c-1.79-2.01-4.66-2.03-7.48-.4ZM50.53 31.7a7.14 7.14 0 0 0-5.03-1.69c-2.39.04-5.16.91-8.06 2.59a29.52 29.52 0 0 0-3.28 2.22 1 1 0 0 0-.18 1.4 1 1 0 0 0 1.4.18c.99-.76 2.02-1.47 3.06-2.07 2.7-1.57 5.14-2.29 7.09-2.32 1.94-.03 3.33.61 4.15 1.71.08.11.18.2.3.27l3.98 2.31a1 1 0 1 0 1-1.72l-2.81-1.63c.75-.64 1.52-1.21 2.32-1.67a9.75 9.75 0 0 1 2.89-1.15l-3.89-.58a17.06 17.06 0 0 0-2.94 2.16Zm-19.11 8.4c.45-.5.93-.99 1.42-1.47a1 1 0 1 0-1.38-1.44c-.52.5-1.04 1.03-1.53 1.59a1 1 0 1 0 1.49 1.33Zm47.02 21.98a1 1 0 0 0 .37-1.36 1 1 0 0 0-1.36-.37l.5.87.5.86ZM82 49.31l-6.55 3.79-.57.33a22.99 22.99 0 0 0 2.4-9.67c0-3.69-1.25-6.58-3.54-8.04s-.03-.03-.04-.03l-.09-.05-11.51-6.66h-.02c-2.35-1.47-5.45-1.24-8.6.58l3.89.58a4.9 4.9 0 0 1 3.69.55h.02l.02.02 7.35 4.25c-1.08.24-2.19.68-3.32 1.33a17.46 17.46 0 0 0-2.94 2.16 7.14 7.14 0 0 0-5.03-1.69c-2.39.04-5.16.91-8.06 2.58-.5.3-1 .61-1.5.94a1 1 0 1 0 1.1 1.67c.46-.3.93-.59 1.41-.88 2.7-1.56 5.14-2.28 7.09-2.31 1.94-.03 3.33.61 4.14 1.71a1 1 0 0 0 1.51.11 16.28 16.28 0 0 1 3.29-2.56c2.69-1.56 4.9-1.57 6.42-.69l.15.09c1.51.96 2.61 3.05 2.61 6.35s-1.13 7.04-3 10.36c-.24.43-.49.84-.75 1.25l-8.97 5.19c-2.01 1.16-3.06.98-3.55.65-.53-.37-.94-1.32-.81-2.94.27-3.16 2.6-7.64 6.95-10.15a1 1 0 0 0-1-1.73c-4.92 2.85-7.62 7.9-7.94 11.71-.16 1.86.24 3.76 1.65 4.75 1.46 1.02 3.47.73 5.69-.55l4.27-2.47c-.87.8-1.79 1.5-2.73 2.04l-18.51 10.9c.51-3.1 2.79-7.13 6.85-9.48a1 1 0 0 0-1-1.73c-4.92 2.85-7.62 7.9-7.94 11.71l-.03.75-13.06 7.69-.05.03-.03.02c-2.77 1.59-5.68 2.54-7.79 2.19a3.8 3.8 0 0 1-1.23-.42l-.23-.14a3.3 3.3 0 0 1-.93-.9c-.59-.85-1.01-2.21-1.01-4.29 0-8.38 4.19-13.58 9.59-16.7a21.5 21.5 0 0 1 3.27-1.34c1.36-.46 2.59-.78 3.08-.83.08 0 .16-.04.23-.06.02 0 .04 0 .06-.02a.99.99 0 0 0 .6-.8c.44-3.71 2.87-8.19 6.45-12.02a.99.99 0 0 0-.05-1.41.99.99 0 0 0-1.41.05c-3.33 3.56-5.83 7.79-6.7 11.69l-8.32-4.81a1 1 0 1 0-.99 1.73l7.39 4.27-.98.31a23.86 23.86 0 0 0-3.64 1.5c-5.91 3.41-10.59 9.22-10.59 18.43 0 1.17.12 2.2.35 3.11l-7.75-4.47-.04-.03-.38-.23c-1.02-.72-1.84-2.19-1.84-5.12 0-8.37 4.2-13.58 9.59-16.7a21.5 21.5 0 0 1 3.27-1.34c1.36-.46 2.59-.78 3.08-.83a1 1 0 0 0 .9-.88c.25-2.12 1.15-4.5 2.58-6.9a1 1 0 1 0-1.72-1.02 20.83 20.83 0 0 0-2.74 6.94c-.77.17-1.78.47-2.74.79a23.86 23.86 0 0 0-3.64 1.5c-5.91 3.41-10.59 9.23-10.59 18.43 0 3.31.95 5.57 2.75 6.8a.2.2 0 0 1 .06.04l.38.23.05.03h.02l11.21 6.48c.68.45 1.45.74 2.27.87 2.82.47 6.26-.78 9.14-2.45l.05-.03.04-.02 12.35-7.27c.26.76.69 1.42 1.35 1.88 1.46 1.02 3.47.73 5.69-.55l16.46-9.52 10.13-5.85-.5-.86-.5-.87-10.13 5.85-16.46 9.52c-2.01 1.16-3.06.98-3.55.65-.31-.22-.58-.65-.72-1.29l19.53-11.5c2.6-1.5 4.95-3.92 6.82-6.71l3.52-2.04L83 51.05l-.5-.86-.5-.86Zm1.37.37a.99.99 0 0 0-1.36-.36l.5.86.5.86a.99.99 0 0 0 .36-1.36Z"/></svg>