<svg xmlns="http://www.w3.org/2000/svg" width="92" height="92" viewBox="0 0 92 92" fill="#41D182"><path fill-rule="evenodd" d="m62.24 62.96-.81-.46c.17-.59.26-1.19.25-1.78v-.06l-.63-8.38-.02-.26c1.19-1.92 1.96-4.15 1.96-6.23s-.79-3.72-2.31-4.45l-.02-.02-.46-.27-1.04-13.74-.03-.37-.04-.58-.04-.14c-.44-3.87-1.8-7.51-4.67-12.71-3.29-5.99-5.72-8.46-8.39-8.52-2.72-.04-5.29 2.37-8.99 8.38-3.41 5.56-4.64 9.29-5 12.98v.02c-.05.52-.08 1.04-.1 1.56l-1.75 24.33v.03l-.07.9v.1l-.07.88v.04l-.4 5.57-.02.14-.02.33-.03.34v.12c0 .23.02.47.04.7l-1.02.59a9.1 9.1 0 0 0-4.57 7.88v11.38c0 .32.17.61.45.77l2.81 1.61.15.06c.07.03.14.04.22.05h.11c.06 0 .12 0 .19-.02l.06-.02c.06-.02.13-.03.18-.06l1.43-.82a.83.83 0 0 0 .3-.29l6.8-10.44.25.16a17.85 17.85 0 0 0 8.5 2.09c2.72.03 5.49-.47 7.79-1.52l6.75 10.93c.08.13.19.23.32.31l1.32.75.08.05c.14.08.29.12.44.12.2 0 .39-.06.55-.17l2.84-1.63a.88.88 0 0 0 .45-.77V69.43a7.45 7.45 0 0 0-3.76-6.47Zm-5.09-2.9a10.82 10.82 0 0 0 2.5-2.3l.19 2.52.04.5c0 .27-.03.54-.08.8l-2.65-1.52Zm-2.38-.66c-.87.44-1.9.82-3.08 1.13-.07 0-.13.03-.2.05-1.61.4-3.5.65-5.77.65-10.94 0-13.86-5.82-13.86-7.74l.01-.2.06-.87v-.04l1.39-19.4a9.95 9.95 0 0 0 2.75 2.24c2.63 1.51 6.1 2.27 9.55 2.27s6.84-.74 9.44-2.23a9.87 9.87 0 0 0 2.71-2.22l.53 7.04c-1.23-.33-2.65-.02-4.03.77a12.34 12.34 0 0 0-4.49 4.82c-.97 1.75-1.58 3.64-1.58 5.58s.71 3.56 2.09 4.35l1.59.91.02.02c1.41.88 3.22.68 4.99-.33.89-.51 1.71-1.21 2.45-2-.07.96-1.1 3.29-4.23 5.01a.86.86 0 0 0-.36.2Zm-3.9 8.58c-3.82.84-8.15.7-11.83-.38v-5.45c1.88.53 4.08.86 6.68.86 1.94 0 3.66-.18 5.18-.49l-.04 5.46Zm-19.5-7.58.02-.27.02-.17v-.02l.18-2.52a10.7 10.7 0 0 0 1.75 1.85l-1.97 1.13Zm23.28-17.58c-.23.19-.46.4-.68.61l-.32.33-.62.7-.26.32c-.27.35-.53.72-.77 1.1l-.18.28c-.21.34-.4.7-.58 1.06l-.11.21a14.36 14.36 0 0 0-.86 2.32c0 .04-.02.07-.03.11-.09.37-.16.74-.21 1.12l-.02.13a9.94 9.94 0 0 1 1.37-4.61l.02-.03.05-.09.01-.02.05-.08a10.66 10.66 0 0 1 3.58-3.84l-.13.1-.31.26Zm4.7 8.5-.04.07-.03.04-.04.06-.12.18-.02.03a9.83 9.83 0 0 1-3.08 2.94c-1.43.82-2.49.76-3.13.37h-.02l-.02-.02-.11-.08a2.12 2.12 0 0 1-.67-.87 4.41 4.41 0 0 1-.33-1.8c0-1.63.6-3.5 1.63-5.18l.04-.07.01-.02.05-.08.03-.05c.23-.37.48-.73.74-1.06l.19-.21c.21-.25.42-.51.64-.73l.45-.41c.15-.13.29-.28.44-.4.26-.2.53-.38.79-.54l.15-.1c.25-.14.48-.25.71-.34l.13-.04c.17-.06.34-.12.5-.16l.17-.03.41-.06h.08c.15 0 .3 0 .44.03l.08.01c.13.02.24.05.35.1l.04.01h.02c.71.31 1.36 1.18 1.36 2.89s-.69 3.76-1.84 5.52Zm-20.81-37c3.2-5.2 5.47-7.53 7.35-7.53h.05c1.87.04 3.99 2.39 6.85 7.59 3.07 5.57 4.17 9.03 4.5 12.26l.08 1.07v.17c.03.36.04.72.05 1.08v.34c0 1.64-1.15 3.21-3.25 4.41-4.73 2.71-12.44 2.69-17.19-.04-2.12-1.21-3.3-2.77-3.32-4.38v-.1c0-.39.01-.78.03-1.16V28l.01-.18v-.08l.08-1.12c.34-3.47 1.49-7 4.75-12.31ZM26.81 81.34l-1.01-.58V69.9c0-2.61 1.4-5.03 3.67-6.34l1.63-.94 3.82-2.2c.34.21.7.41 1.08.6l-4.61 2.62a9.11 9.11 0 0 0-4.59 7.9v9.81Zm1.8-.09v-9.73a7.34 7.34 0 0 1 3.69-6.35l4.93-2.8v5.64l-8.62 13.24Zm16.87-8.68c-2.8-.03-5.55-.66-7.62-1.85l-.17-.11.84-1.29a26.35 26.35 0 0 0 12.79.39l.98 1.59a17.1 17.1 0 0 1-6.83 1.27Zm15.79 9.83-6.88-11.15-.01-.01-1.71-2.77.04-5.55 5.7 3.14a5.68 5.68 0 0 1 2.87 4.93V82.4Zm2.93-.49-1.13.65V70.99a7.47 7.47 0 0 0-3.77-6.48h-.01l-5.2-2.87c.44-.17.86-.35 1.26-.54l5.99 3.42a5.67 5.67 0 0 1 2.86 4.93v12.47Z"/><path fill-rule="evenodd" d="M58.7 45.54c-.8-.54-1.78-.41-2.62.07a5.4 5.4 0 0 0-1.69 1.64c-.03.04-.08.1-.12.19a5.42 5.42 0 0 0-.87 2.79c0 .89.32 1.76 1.11 2.2.78.44 1.7.29 2.48-.16a5.35 5.35 0 0 0 1.77-1.74l.12-.19a4.77 4.77 0 0 0 .44-.91 4.8 4.8 0 0 0 .37-1.78c0-.85-.29-1.65-.97-2.11Zm-1.12 3.33-.05.16c-.06.13-.14.27-.22.4l-.04.07-.04.06a3.5 3.5 0 0 1-1.16 1.17c-.46.26-.66.17-.69.16-.03-.01-.2-.14-.2-.65 0-.56.22-1.24.61-1.87l.02-.04v-.02l.05-.05c.32-.48.72-.87 1.11-1.1.47-.27.66-.17.7-.15.04.03.19.17.19.64 0 .36-.09.77-.29 1.21Z"/></svg>