<svg xmlns="http://www.w3.org/2000/svg" width="156" height="64" fill="none" viewBox="0 0 156 64"><g clip-path="url(#a)"><path fill="#FCFCFC" d="M29.03 8.25c-1.82 2.16-4.73 3.87-7.65 3.62-.36-2.92 1.07-6.02 2.73-7.94A11.4 11.4 0 0 1 31.7 0a11.6 11.6 0 0 1-2.67 8.25Zm2.64 4.2c-4.22-.24-7.83 2.4-9.83 2.4-2.03 0-5.1-2.28-8.44-2.21a12.46 12.46 0 0 0-10.58 6.45c-4.56 7.86-1.19 19.49 3.21 25.88 2.16 3.17 4.73 6.64 8.13 6.52 3.22-.13 4.5-2.1 8.38-2.1 3.91 0 5.03 2.1 8.43 2.04 3.52-.07 5.74-3.17 7.89-6.34 2.46-3.6 3.46-7.1 3.52-7.27-.06-.07-6.8-2.65-6.86-10.45-.06-6.51 5.31-9.62 5.56-9.8-3.04-4.5-7.77-5-9.41-5.12Zm24.36-8.83V51.1h7.35V34.86h10.16c9.28 0 15.8-6.4 15.8-15.65S82.95 3.62 73.79 3.62H56.03Zm7.35 6.21h8.46c6.37 0 10.01 3.41 10.01 9.41s-3.64 9.44-10.04 9.44h-8.43V9.83Zm39.38 41.63c4.61 0 8.89-2.35 10.83-6.06h.15v5.69h6.8V27.46c0-6.85-5.46-11.26-13.87-11.26-7.8 0-13.56 4.47-13.77 10.62h6.61c.55-2.92 3.25-4.84 6.95-4.84 4.49 0 7 2.1 7 5.97v2.62l-9.15.55c-8.53.51-13.14 4.02-13.14 10.1 0 6.16 4.76 10.24 11.59 10.24Zm1.97-5.64c-3.91 0-6.4-1.88-6.4-4.78 0-2.98 2.4-4.72 6.98-4.99l8.16-.52v2.68c0 4.45-3.76 7.61-8.74 7.61ZM129.61 64c7.16 0 10.53-2.74 13.47-11.05l12.9-36.3h-7.47l-8.64 28.05h-.16l-8.64-28.05h-7.68l12.44 34.56-.67 2.1c-1.12 3.57-2.94 4.94-6.19 4.94-.57 0-1.7-.07-2.15-.13v5.7c.42.12 2.24.18 2.79.18Z"/></g><defs><clipPath id="a"><path fill="#fff" d="M.63 0h155.34v64H.63z"/></clipPath></defs></svg>