<svg xmlns="http://www.w3.org/2000/svg" width="128" height="128" viewBox="0 0 128 128" fill="#41d182"><path d="M70.27 32.78a.99.99 0 0 1-.1-1.41c.82-.94 1.56-1.76 2.29-2.49a1 1 0 0 1 1.42-.01 1 1 0 0 1 .01 1.41 51.7 51.7 0 0 0-2.2 2.4 1 1 0 0 1-1.41.11Zm53.23 18.77c0 10.98-7.75 24.36-17.28 29.85l-64.39 37.11c-2.87 1.66-5.66 2.49-8.18 2.49a9.7 9.7 0 0 1-4.94-1.28.8.8 0 0 1-.25-.11L9.82 108.17c-3.43-2.09-5.32-6.3-5.32-11.84 0-11.31 7.94-25.03 17.7-30.59.83-.48 1.69-.9 2.59-1.26.06-8.11 5.78-17.95 12.79-21.99.71-.41 1.47-.77 2.25-1.06 3.81-12.99 12.77-25.1 22.92-30.96C69.67 6.44 76.22 5.9 81.2 8.95l18.64 11.43.06.06s.02 0 .02.02c4.72 2.95 7.21 8.59 7.21 16.32a37.39 37.39 0 0 1-.18 3.35 15.77 15.77 0 0 1 5.28-1.49l-2.76-1.69a1 1 0 0 1-.33-1.37 1 1 0 0 1 1.38-.33l7.29 4.46h.02l.46.27c3.42 2.08 5.22 6.09 5.22 11.59Zm-2 0c0-4.72-1.44-8.1-4.16-9.81l-.09-.04-.31-.19-.04-.02-.1-.06c-2.81-1.46-6.54-.99-10.57 1.32a1 1 0 0 1-1.06-.04 1.02 1.02 0 0 1-.43-.97c.25-1.65.38-3.32.39-4.98 0-7.04-2.19-12.11-6.35-14.67l-.02-.01c-4.29-2.63-10.12-2.08-16.41 1.55-.89.46-1.73 1.05-2.66 1.71a1 1 0 1 1-1.16-1.62c.99-.72 1.89-1.34 2.86-1.84 4.03-2.32 7.93-3.48 11.47-3.43l-12.72-7.8C75.82 8.01 70 8.56 63.75 12.2c-9.71 5.6-18.6 17.76-22.14 30.27a1 1 0 0 1-.65.68c-.83.27-1.63.63-2.38 1.07-6.5 3.75-11.79 12.9-11.79 20.4v.55a1 1 0 0 1-.66.94c-1.01.36-2 .82-2.93 1.36-9.21 5.25-16.69 18.19-16.69 28.86 0 4.82 1.55 8.42 4.37 10.14l13.55 8.31a17.67 17.67 0 0 1-1.28-7.04l.01-.62c-.37.21-.74.42-1.13.62a1 1 0 0 1-1.35-.44 1 1 0 0 1 .45-1.34c.36-.18.72-.38 1.07-.58l1.11-.63h.01c1.22-10.64 8.61-22.5 17.52-27.57.45-.26.92-.51 1.39-.74L28.6 68.08a1 1 0 0 1-.33-1.38c.05-.07.1-.14.17-.2a1 1 0 0 1 1.21-.12l13.82 8.48c.51-7.89 6.04-17.07 12.76-20.93.27-.16.54-.3.82-.44l-13.28-8.13a1.02 1.02 0 0 1-.33-1.38 1 1 0 0 1 1.38-.33l13.87 8.5a56.72 56.72 0 0 1 4.64-10.81 1 1 0 0 1 1.36-.38 1 1 0 0 1 .39 1.36 55.23 55.23 0 0 0-4.83 11.59 1 1 0 0 1-.5.6.54.54 0 0 1-.13.07l-.15.05c-.77.27-1.52.62-2.24 1.03-6.51 3.75-11.81 12.9-11.81 20.4v.54l-.01.15c0 .14-.05.28-.13.4-.12.19-.31.31-.51.39l-.14.06c-.96.35-1.9.8-2.79 1.31-9.2 5.25-16.7 18.18-16.7 28.86 0 4.88 1.51 8.39 4.38 10.14l.01.01c2.93 1.79 6.94 1.4 11.31-1.11l64.39-37.11c8.97-5.17 16.28-17.78 16.28-28.12Zm-19.25-2.25a1.01 1.01 0 0 0-1.28.61c-.31.88-.69 1.82-1.16 2.85a1 1 0 0 0 .91 1.41 1 1 0 0 0 .91-.59c.49-1.09.89-2.07 1.22-3.01a1 1 0 0 0-.61-1.27Zm-6.19 9.97a35.39 35.39 0 0 1-4.8 5.5 1 1 0 1 0 1.36 1.46 37.39 37.39 0 0 0 5.07-5.81 1 1 0 0 0-.24-1.39 1 1 0 0 0-1.39.24ZM84.64 69.38 68.91 78.5a1 1 0 0 0 .51 1.87c.17 0 .34-.04.5-.14l15.73-9.12a1 1 0 0 0 .36-1.37 1 1 0 0 0-1.37-.36ZM62.47 82.15l-6.05 3.49c-.48.28-.64.89-.37 1.37a1 1 0 0 0 1.37.37l6.05-3.49a1 1 0 1 0-1-1.73Zm-12.33 7.12-10.17 5.87a1 1 0 0 0 1.01 1.74l10.17-5.87a1 1 0 0 0 .36-1.37 1 1 0 0 0-1.37-.36Zm-16.52 9.52-1.86 1.06a1 1 0 0 0 .5 1.86 1 1 0 0 0 .5-.13l1.86-1.06a1 1 0 1 0-1-1.73Z"/></svg>