<svg xmlns="http://www.w3.org/2000/svg" width="136" height="64" fill="none" viewBox="0 0 136 64"><g clip-path="url(#a)"><path fill="#FCFCFC" d="M64.48 33.1v15.6h-5.04V10.08h13.1c3.2 0 6.22 1.17 8.57 3.36 2.35 2.01 3.52 5.04 3.52 8.23 0 3.2-1.17 6.05-3.52 8.23a12.2 12.2 0 0 1-8.57 3.36l-8.06-.17Zm0-18.32v13.44h8.4c1.84 0 3.7-.67 4.87-2.02a6.44 6.44 0 0 0 .17-9.23l-.17-.17c-1.35-1.35-3.03-2.19-4.87-2.02h-8.4Zm31.75 6.72c3.7 0 6.55 1 8.74 3.02 2.18 2.02 3.19 4.7 3.19 8.07V48.7h-4.7V45h-.17a9.54 9.54 0 0 1-8.23 4.54c-2.86 0-5.38-.84-7.4-2.52a8.93 8.93 0 0 1-3.02-6.55c0-2.68 1-4.87 3.02-6.55 2.02-1.68 4.88-2.35 8.24-2.35 3.02 0 5.37.5 7.22 1.68v-1.18c0-1.68-.67-3.36-2.02-4.36a7.32 7.32 0 0 0-4.87-1.85 7.32 7.32 0 0 0-6.55 3.53l-4.37-2.7c2.69-3.52 6.22-5.2 10.92-5.2Zm-6.38 19.15c0 1.34.67 2.52 1.68 3.2a6.73 6.73 0 0 0 3.86 1.34 7.9 7.9 0 0 0 5.55-2.36 7.1 7.1 0 0 0 2.51-5.37c-1.5-1.18-3.7-1.85-6.55-1.85-2.01 0-3.7.5-5.04 1.51a3.95 3.95 0 0 0-2.01 3.53Zm45.52-18.31-16.64 38.13h-5.03l6.21-13.27L109 22.5h5.38l7.9 19h.16l7.73-19h5.2v-.16Z"/><path fill="#4285F4" d="M44.49 29.73c0-1.51-.17-3.02-.34-4.53h-21v8.56h11.93c-.5 2.7-2.01 5.21-4.36 6.72v5.55h7.22c4.2-3.87 6.55-9.58 6.55-16.3Z"/><path fill="#34A853" d="M23.16 51.4c6.04 0 11.08-2.01 14.78-5.37l-7.22-5.55a13.4 13.4 0 0 1-7.56 2.19 13.16 13.16 0 0 1-12.43-9.24h-7.4v5.7A22.2 22.2 0 0 0 23.17 51.4Z"/><path fill="#FBBC04" d="M10.73 33.43c-1-2.69-1-5.71 0-8.57v-5.71h-7.4a22.06 22.06 0 0 0 0 19.99l7.4-5.71Z"/><path fill="#EA4335" d="M23.16 15.79c3.2 0 6.22 1.18 8.57 3.36l6.38-6.38a21.24 21.24 0 0 0-14.78-5.71A22 22 0 0 0 3.51 19.32l7.39 5.7a12.8 12.8 0 0 1 12.26-9.23Z"/></g><defs><clipPath id="a"><path fill="#fff" d="M.98 0h134.38v64H.98z"/></clipPath></defs></svg>