<svg xmlns="http://www.w3.org/2000/svg" width="92" height="92" viewBox="0 0 92 92" fill="#41D182"><path fill-rule="evenodd" d="M63.59 15.6c0-.6.48-1.09 1.08-1.09H86.4c.6 0 1.08.48 1.08 1.09v13.09c0 .6-.48 1.09-1.08 1.09H72.35a.97.97 0 0 0-.73.32l-3.33 3.54v-2.85a1 1 0 0 0-1-1.01h-2.62c-.6 0-1.08-.48-1.08-1.09V15.6Zm1.08-3.1a3.1 3.1 0 0 0-3.09 3.1v13.09a3.1 3.1 0 0 0 3.09 3.1h1.62v4.38a1 1 0 0 0 1.73.68l4.76-5.07H86.4a3.1 3.1 0 0 0 3.09-3.1V15.59a3.1 3.1 0 0 0-3.09-3.1H64.67Zm2.63 4.55c-.55 0-1 .45-1 1.01s.45 1.01 1 1.01h16.58c.55 0 1-.45 1-1.01s-.45-1.01-1-1.01H67.3Zm-27.28 5.58c-3.36-1.11-7.73-.53-12.67 2.32C16.16 31.42 9.26 45.48 8.78 58.57v6.82c.76.06 1.54.26 2.34.57v-2.14a26.6 26.6 0 0 1-.03-1.27c0-.5 0-1.01.03-1.51v-.19a46.38 46.38 0 0 1 2.9-14.23 1 1 0 0 1 1.88.7 44.7 44.7 0 0 0-2.78 13.76v1.8c1.22.1 2.51.54 3.81 1.29a18.64 18.64 0 0 1 6.45 6.78c1.62 2.8 2.66 6 2.66 8.94 0 2.73-.89 4.92-2.61 6.14l-.08.05-.05.03c-.13.09-.27.17-.41.24l-3.91 2.26-.31.19-.26.14-.12.07-.1.03c-1.9.83-4.25.49-6.6-.87A18.84 18.84 0 0 1 5 81.15c-.27-.48-.1-1.1.38-1.37s1.1-.1 1.37.38a16.83 16.83 0 0 0 5.84 6.27c2.06 1.19 3.74 1.26 4.88.73l.44-.25c1.02-.71 1.78-2.17 1.78-4.51 0-2.5-.89-5.36-2.39-7.93a16.53 16.53 0 0 0-5.72-6.04c-2.19-1.27-3.95-1.27-5.09-.62-1.13.65-2.01 2.14-2.01 4.66 0 .46.03.94.08 1.41.06.55-.33 1.05-.88 1.12a1 1 0 0 1-1.11-.88c-.06-.55-.1-1.1-.1-1.65 0-2.94 1.05-5.27 3.03-6.4.39-.22.81-.39 1.25-.51v-4.37c-.02-.37-.03-.75-.03-1.13 0-.49 0-1.01.03-1.53v-.17c.55-13.57 7.69-28.27 19.57-35.13 6.07-3.51 11.8-4.04 16.13-1.7h.01l.61.36L46.71 24l.65.37.05.03c3.78 2.35 6.11 6.93 6.44 13.04v.1a34.98 34.98 0 0 1 0 3.22v10.8a19.98 19.98 0 0 1 3.28 7.85l2.08 1.4a12.02 12.02 0 0 1-.71 20.37l-2.64 1.52a4.68 4.68 0 0 1-8.42 4.05 1 1 0 1 1 1.81-.87c.43.9 1.34 1.51 2.4 1.51a2.67 2.67 0 1 0-1.69-4.72 1 1 0 0 1-1.41-.14 1.01 1.01 0 0 1 .14-1.42 4.65 4.65 0 0 1 5.93 0l2.89-1.67a10 10 0 0 0 .59-16.96l-.74-.5c-.03 2.66-.92 4.8-2.61 5.99l-.04.03-.08.04c-.15.1-.32.2-.49.28l-.13.07-3.57 2.08-.45.29c-1.98 1.13-4.53.85-7.08-.63a18.64 18.64 0 0 1-6.45-6.78c-1.62-2.8-2.66-6-2.66-8.94 0-2.58.8-4.68 2.34-5.93.17-.14.34-.26.52-.37s.11-.08.11-.08l4.6-2.66c.61-.3 1.28-.49 1.99-.55a7.95 7.95 0 0 1 4.17.89V34.98c-.25-4.52-1.66-7.89-3.77-10.01-3.25-.85-7.4-.17-12.04 2.51l-.6.36a1 1 0 0 1-1.04-1.72l.6-.36h.01c3.26-1.89 6.42-2.92 9.32-3.11ZM42 47.73a4.58 4.58 0 0 0-.49-.15l.75-.43c.37-.18.79-.31 1.26-.35h.01c1.01-.1 2.27.19 3.72 1.03l.26.15V48h.03c2.08 1.29 4 3.41 5.43 5.87 1.49 2.58 2.39 5.43 2.39 7.93 0 2.3-.73 3.74-1.72 4.47l-.03.02-.41.23-.12.07c-.1.05-.21.09-.32.12.17-.73.26-1.53.26-2.39 0-2.17-.55-4.46-1.49-6.63a1 1 0 1 0-1.84.8c.85 1.97 1.32 4 1.32 5.83 0 2.26-.71 3.69-1.68 4.43l-.64.37c-1.14.49-2.78.4-4.79-.77a16.6 16.6 0 0 1-5.72-6.04c-1.49-2.58-2.39-5.43-2.39-7.93 0-2.2.68-3.62 1.59-4.37.89-.73 2.23-.98 3.94-.38.52.18 1.1-.1 1.28-.62a1 1 0 0 0-.62-1.28Zm9.87-10.26V49a16.93 16.93 0 0 0-2.34-2.09v-8.73c.03-.59.04-1.17.04-1.73 0-.49 0-.98-.04-1.45v-.1a20.16 20.16 0 0 0-1.9-7.87c2.39 2.12 3.97 5.63 4.24 10.46ZM22.3 84.39l-.04.02-.28.16-.1.05-.14.08-.11.07-.2.12c.19-.76.28-1.59.28-2.48 0-2.94-1.03-6.14-2.66-8.94a19.06 19.06 0 0 0-5.93-6.46v-2.09c.82.1 1.77.41 2.81 1.01 2.19 1.26 4.22 3.47 5.72 6.04 1.49 2.58 2.39 5.43 2.39 7.93 0 2.31-.74 3.75-1.73 4.47h-.03Zm5.16-55.26c.36.43.3 1.06-.12 1.42a37.84 37.84 0 0 0-8.69 10.81 1 1 0 0 1-1.36.4 1 1 0 0 1-.4-1.36 39.91 39.91 0 0 1 9.16-11.39c.42-.36 1.06-.3 1.42.12ZM16.38 74.82h.01v.25h-.01v-.25ZM5.16 76.48a1 1 0 0 0-1.26-.66 1 1 0 0 0-.66 1.26c.22.71.49 1.45.81 2.17.23.51.82.73 1.33.51.51-.23.73-.82.51-1.33-.28-.63-.52-1.28-.72-1.94Zm41.81-25.52.04.03a19.93 19.93 0 0 1 2.93 3.67 1 1 0 1 1-1.7 1.07 17.9 17.9 0 0 0-2.64-3.3c-.54-.53-1.1-1.01-1.67-1.43a1 1 0 0 1-.22-1.4 1 1 0 0 1 1.4-.22c.66.48 1.27 1.01 1.87 1.59Zm-6.92 5.77c0-1.1.38-1.61.71-1.79.33-.19.97-.26 1.94.3.96.55 1.94 1.6 2.69 2.84.75 1.25 1.18 2.58 1.18 3.66s-.38 1.61-.71 1.79c-.33.19-.97.26-1.94-.3a8.22 8.22 0 0 1-2.69-2.84 7.53 7.53 0 0 1-1.18-3.66Zm3.66-3.24c-1.33-.77-2.77-.97-3.94-.31-1.18.67-1.72 2.01-1.72 3.54s.6 3.25 1.46 4.7a10.23 10.23 0 0 0 3.41 3.56c1.33.77 2.77.97 3.94.31 1.18-.67 1.72-2.01 1.72-3.54s-.6-3.25-1.46-4.7a10.23 10.23 0 0 0-3.41-3.56ZM10.2 74.53c-.13.07-.38.33-.38 1.08s.29 1.65.82 2.54a5.65 5.65 0 0 0 1.87 1.99c.67.38 1.03.29 1.16.22.12-.07.38-.33.38-1.08s-.29-1.65-.82-2.54a5.65 5.65 0 0 0-1.87-1.99c-.66-.38-1.02-.29-1.15-.22Zm-.99-1.75c.97-.55 2.13-.37 3.15.22a7.72 7.72 0 0 1 2.59 2.7c.65 1.09 1.11 2.37 1.11 3.57s-.42 2.27-1.4 2.83c-.97.55-2.13.36-3.15-.23a7.72 7.72 0 0 1-2.59-2.7c-.65-1.09-1.11-2.37-1.11-3.57s.42-2.27 1.4-2.82Zm57.08-50.64a1 1 0 0 1 1-1.01h9.9c.55 0 1 .45 1 1.01s-.45 1.01-1 1.01h-9.9a1 1 0 0 1-1-1.01Z"/></svg>