<svg xmlns="http://www.w3.org/2000/svg" width="128" height="128" viewBox="0 0 128 128" fill="#41d182"><path d="m84.55 101.25-4.73 2.72v4.01l1.31-.75v1.03l2.12-1.21v-1.03l1.31-.75v-4.01Zm6.93-3.98-4.73 2.7v4.02l1.31-.75v1.03l2.12-1.21v-1.03l1.31-.75v-4.01Zm6.93-4-4.72 2.72V100l1.31-.74v1.03l2.1-1.21v-1.03l1.31-.75v-4.02Zm6.93-3.98-4.73 2.72v4.01l1.31-.75v1.03l2.12-1.21v-1.03l1.31-.75V89.3Zm6.94-3.98-4.73 2.72v4.01l1.31-.75v1.03l2.12-1.21v-1.03l1.31-.75v-4.01ZM65.94 116c.72-1.24.72-2.58 0-2.99-.72-.41-1.88.26-2.6 1.5-.72 1.24-.72 2.58 0 2.99.72.41 1.88-.26 2.6-1.5Zm-47.51-12.3a1 1 0 0 1-1-.99v-6.53a.98.98 0 0 1 .99-1 1 1 0 0 1 1 .99v6.53c.01.55-.43 1-.99 1Zm4.43 2.55a1 1 0 0 1-1-1v-6.53c0-.55.45-1 1-1s1 .45 1 1v6.53a1 1 0 0 1-1 1Zm4.45 2.55a1 1 0 0 1-1-1v-6.52c0-.55.45-1 1-1s1 .45 1 1v6.52a1 1 0 0 1-1 1Zm4.45 2.55a1 1 0 0 1-1-1v-6.52c0-.55.45-1 1-1s1 .45 1 1v6.52a1 1 0 0 1-1 1Zm85.23-34.8a5.09 5.09 0 0 0-3-4.04L78.35 52.07c-3.34-1.87-8.16-2.05-11-.41l-.91.52v-9.36l-.01-.19-1.83-9.46V3.01c0-.16-.04-.3-.11-.43l-.01-.02C64.2 1.35 62.79.5 60.97.5c-1.97 0-3.49.98-3.62 2.31l-.02.2v30.16l-1.82 9.46-.02.19v11.57c0 .55.45 1 1 1s1-.45 1-1V42.91l1.67-8.65.15-.81c.02-.06.02-.12.02-.19V3.04c.06-.16.63-.55 1.63-.55s1.51.39 1.56.52c0 .12.02.23.06.33v29.9c-.03.09-.36.38-1.09.51a.99.99 0 0 0-.81 1.15c.08.49.5.83.98.83h.17c.42-.07.8-.19 1.14-.34l1.44 7.49c-.06.64-1.39 1.5-3.46 1.5h-.81c-.55 0-1 .45-1 1s.45 1 1 1h.81c1.33 0 2.53-.29 3.47-.79v7.75L26.99 74.82V64.56c0-.07 0-.13-.02-.19v-.03l-1.81-9.43V24.75l-.02-.2c-.13-1.34-1.64-2.31-3.61-2.31s-3.5.98-3.63 2.31l-.02.2v30.16l-1.81 9.46-.02.19v13.13a1 1 0 0 0 1.71.71c.18-.18.29-.44.29-.71V64.65L19.71 56l.15-.81.02-.19V24.78c.05-.16.63-.55 1.64-.55s1.57.39 1.62.52v30.23c-.03.09-.36.38-1.09.51a.99.99 0 0 0-.81 1.15c.08.49.5.83.98.83h.17c.42-.07.8-.19 1.14-.34l1.43 7.49c-.06.63-1.38 1.5-3.45 1.5h-.81c-.55 0-1 .45-1 1s.45 1 1 1h.81c1.33 0 2.52-.28 3.46-.76v8.62l-6.48 3.72-.16.09-.17.1-4.86 2.79a3.94 3.94 0 0 0-2.3 3.2.78.78 0 0 0-.03.22v15.31l.01.13c.11.88.45 1.72.99 2.43.52.7 1.21 1.26 2.01 1.61l35.64 20.41a12.71 12.71 0 0 0 6.19 1.54c1.81 0 3.55-.37 4.87-1.13l53.95-31a4 4 0 0 0 2.33-3.46v-15.2l-.01-.17ZM115 91.86c-.02.36-.14.71-.34 1.01-.2.3-.49.54-.9.73l-54.04 31.05c-2.25 1.29-6.4 1.1-9.06-.43l-20.28-11.61-15.4-8.82-.1-.05a3.18 3.18 0 0 1-1.86-2.44V86.14c.02-.36.14-.71.34-1.01.2-.3.49-.54.9-.73l12.42-7.13 39.48-22.65 2.2-1.27c2.24-1.31 6.28-1.12 9 .42l35.68 20.46.1.05a3.15 3.15 0 0 1 1.85 2.41 1.9 1.9 0 0 1-.33.92c-.2.3-.49.54-.9.73l-54.04 31.04c-2.25 1.3-6.4 1.11-9.05-.41l-34.46-19.8a1.01 1.01 0 0 0-1.37.37 1 1 0 0 0 .37 1.36l18.11 10.4 16.35 9.4a12.64 12.64 0 0 0 6.17 1.54c1.82 0 3.57-.37 4.89-1.14l53.95-30.99.33-.18v11.92Z"/></svg>