<svg xmlns="http://www.w3.org/2000/svg" xmlns:xlink="http://www.w3.org/1999/xlink" style="display:none"><symbol id="abonent"><path fill-rule="evenodd" d="M8.48 2.89a4.95 4.95 0 016.9 0 4.67 4.67 0 010 6.72 4.95 4.95 0 01-6.9 0 4.67 4.67 0 010-6.72zm3.45.11a3.4 3.4 0 00-2.36.95 3.2 3.2 0 000 4.6 3.38 3.38 0 004.72 0 3.2 3.2 0 000-4.6A3.38 3.38 0 0011.93 3zM9.88 15a3.4 3.4 0 00-2.36.95 3.2 3.2 0 00-.98 2.3v2c0 .41-.34.75-.77.75S5 20.66 5 20.25v-2c0-1.26.51-2.47 1.43-3.36a4.95 4.95 0 013.45-1.39h2.57c.43 0 .77.34.77.75s-.34.75-.77.75H9.88zm10.01-.25v.85c.45.12.86.35 1.2.67l.76-.43a.78.78 0 011.05.27c.21.36.09.82-.28 1.02l-.76.43a2.57 2.57 0 010 1.34l.76.43c.37.21.49.67.28 1.02a.77.77 0 01-1.05.27l-.76-.43a2.8 2.8 0 01-1.2.67v.85c0 .41-.34.75-.77.75s-.77-.34-.77-.75v-.85a2.8 2.8 0 01-1.2-.67l-.76.43a.78.78 0 01-1.05-.27.73.73 0 01.28-1.02l.76-.43a2.52 2.52 0 010-1.34l-.76-.43a.74.74 0 01-.28-1.02.77.77 0 011.05-.27l.76.43a2.8 2.8 0 011.2-.67v-.85c0-.41.34-.75.77-.75s.77.34.77.75zm.36 4.08l-.03.04-.02.04a1.33 1.33 0 01-1.09.59 1.29 1.29 0 01-1.11-.62v-.02a1.23 1.23 0 01.21-1.5c.24-.23.57-.37.91-.37a1.29 1.29 0 011.29 1.25c0 .2-.05.41-.15.58z"/></symbol><symbol id="account"><path fill-rule="evenodd" d="M8.17 2.76A10.02 10.02 0 0122 12a10.06 10.06 0 01-3.47 7.57l-.1.08A9.9 9.9 0 0112 21.99a10.06 10.06 0 01-7.07-2.93A9.98 9.98 0 018.17 2.75zm9.95 14.4a8.04 8.04 0 001.28-8.22A7.9 7.9 0 0012.01 4a8.03 8.03 0 00-8 8 8.03 8.03 0 001.89 5.16A5.02 5.02 0 0110.01 15h4a5.04 5.04 0 014.12 2.16zM7.38 18.53A3 3 0 0110 17h4a3.02 3.02 0 012.61 1.53A8.15 8.15 0 0111.99 20a8.03 8.03 0 01-4.62-1.47zM9.17 7.17a4 4 0 115.66 5.67 4 4 0 01-5.66-5.67zM12 8c-.53 0-1.04.21-1.41.59a1.98 1.98 0 000 2.82 1.97 1.97 0 002.82 0 1.97 1.97 0 000-2.82A1.98 1.98 0 0012 8z"/></symbol><symbol id="action"><path fill-rule="evenodd" d="M12 2a10.1 10.1 0 00-7.07 2.93 9.98 9.98 0 003.24 16.31A10.02 10.02 0 0022 12a10.06 10.06 0 00-2.93-7.07A9.98 9.98 0 0012 2zM8.76 4.18a8.4 8.4 0 016.48 0 8.49 8.49 0 014.58 4.58 8.4 8.4 0 010 6.48 8.23 8.23 0 01-4.58 4.58 8.4 8.4 0 01-6.48 0 8.23 8.23 0 01-4.58-4.58 8.58 8.58 0 010-6.48 8.23 8.23 0 014.58-4.58zm6.86 5.29a.77.77 0 00-1.09-1.09l-6.15 6.15a.77.77 0 001.09 1.09l6.15-6.15zm-7.47-.03c0-.71.57-1.28 1.28-1.28s1.28.57 1.28 1.28-.57 1.28-1.28 1.28-1.28-.57-1.28-1.28zm5.13 5.12c0-.71.57-1.28 1.28-1.28s1.28.57 1.28 1.28-.57 1.28-1.28 1.28-1.28-.57-1.28-1.28z"/></symbol><symbol id="arrow-down"><path fill-rule="evenodd" d="M8.75 10.92l2.97-2.98a.75.75 0 011.06 0c.29.29.29.77 0 1.07l-4.25 4.27a.75.75 0 01-1.06 0L3.22 9.01a.77.77 0 010-1.07.75.75 0 011.06 0l2.97 2.98V3.25a.75.75 0 111.5 0v7.67z"/></symbol><symbol id="arrow-left"><path fill-rule="evenodd" d="M7.08 3.22c.27-.29.7-.29.97 0a.8.8 0 010 1.06L5.34 7.25h6.97c.38 0 .69.34.69.75s-.31.75-.69.75H5.34l2.71 2.97a.8.8 0 010 1.06.65.65 0 01-.97 0L3.2 8.53a.8.8 0 010-1.06l3.88-4.25z"/></symbol><symbol id="arrow-right"><path fill-rule="evenodd" d="M8.92 3.22a.65.65 0 00-.97 0 .8.8 0 000 1.06l2.71 2.97H3.69c-.38 0-.69.34-.69.75s.31.75.69.75h6.97l-2.71 2.97a.8.8 0 000 1.06c.27.29.7.29.97 0l3.88-4.25a.8.8 0 000-1.06L8.92 3.22z"/></symbol><symbol id="arrow-up-right"><path fill-rule="evenodd" d="M11.95 4.47a.7.7 0 00-.17-.25.72.72 0 00-.51-.21H5.39c-.41 0-.73.33-.73.73s.33.73.73.73h4.1l-5.28 5.28a.73.73 0 000 1.04c.29.29.75.29 1.04 0l5.28-5.28v4.1c0 .41.33.73.73.73s.73-.33.73-.73V4.69"/></symbol><symbol id="arrow-up"><path fill-rule="evenodd" d="M3.22 7.08a.65.65 0 000 .97.8.8 0 001.06 0l2.97-2.71v6.97c0 .38.34.69.75.69s.75-.31.75-.69V5.34l2.97 2.71a.8.8 0 001.06 0 .65.65 0 000-.97L8.53 3.2a.8.8 0 00-1.06 0L3.22 7.08z"/></symbol><symbol id="battery"><path fill-rule="evenodd" d="M5.29 8.29A.99.99 0 016 8h11a.99.99 0 011 1v.5a1.5 1.5 0 001 1.41v2.17a1.5 1.5 0 00-1 1.41v.5a.99.99 0 01-1 1H6a.99.99 0 01-1-1v-6c0-.27.11-.52.29-.71zM6 6a3 3 0 00-3 3v6a3 3 0 003 3h11a3 3 0 003-3v-.09a1.5 1.5 0 001-1.41v-3a1.5 1.5 0 00-1-1.41V9a3 3 0 00-3-3H6zm2 4c0-.55-.45-1-1-1s-1 .45-1 1v4c0 .55.45 1 1 1s1-.45 1-1v-4zm3-1a1 1 0 011 1v4c0 .55-.45 1-1 1s-1-.45-1-1v-4a1 1 0 011-1zm5 1c0-.55-.45-1-1-1s-1 .45-1 1v4c0 .55.45 1 1 1s1-.45 1-1v-4z"/></symbol><symbol id="box"><path d="M5.5 9h21c1.65 0 3-1.35 3-3s-1.35-3-3-3h-21c-1.65 0-3 1.35-3 3s1.35 3 3 3zm0-5h21c1.1 0 2 .9 2 2s-.9 2-2 2h-21c-1.1 0-2-.9-2-2s.9-2 2-2zm21 6h-21A2.5 2.5 0 003 12.5v12C3 26.98 5.02 29 7.5 29h17c2.48 0 4.5-2.02 4.5-4.5v-12a2.5 2.5 0 00-2.5-2.5zM28 24.5c0 1.93-1.57 3.5-3.5 3.5h-17C5.57 28 4 26.43 4 24.5v-12c0-.83.67-1.5 1.5-1.5h21c.83 0 1.5.67 1.5 1.5v12zM22.35 16c0 .28-.22.5-.5.5H10.14c-.28 0-.5-.22-.5-.5s.22-.5.5-.5h11.71c.28 0 .5.22.5.5z"/></symbol><symbol id="chevron-down"><path fill-rule="evenodd" d="M12.29 6.7c.28.27.28.7 0 .96L8.5 11.3a.72.72 0 01-1 0L3.71 7.66a.65.65 0 010-.96.72.72 0 011 0L8 9.85l3.29-3.15a.72.72 0 011 0z"/></symbol><symbol id="chevron-up"><path fill-rule="evenodd" d="M3.71 9.3a.65.65 0 010-.96L7.5 4.7a.72.72 0 011 0l3.79 3.64c.28.27.28.7 0 .96a.72.72 0 01-1 0L8 6.15 4.71 9.3a.72.72 0 01-1 0z"/></symbol><symbol id="close-bold"><path fill-rule="evenodd" d="M18.71 6.71A1 1 0 1017.3 5.3l-5.29 5.29L6.72 5.3a1 1 0 10-1.41 1.41L10.6 12l-5.29 5.29a1 1 0 101.41 1.41l5.29-5.29 5.29 5.29a1 1 0 101.41-1.41L13.42 12l5.29-5.29z"/></symbol><symbol id="close-slim"><path fill-rule="evenodd" d="M12.77 4.35a.8.8 0 10-1.12-1.12L8 6.88 4.35 3.23a.8.8 0 10-1.12 1.12L6.88 8l-3.65 3.65a.8.8 0 101.12 1.12L8 9.12l3.65 3.65a.8.8 0 101.12-1.12L9.12 8l3.65-3.65z"/></symbol><symbol id="company"><path fill-rule="evenodd" d="M9.04 4.42c.24-.24.57-.38.91-.38h4.1a1.3 1.3 0 011.29 1.29v1.28H8.67V5.33c0-.34.14-.67.38-.91zM7.13 6.61V5.33A2.83 2.83 0 019.95 2.5h4.1a2.83 2.83 0 012.82 2.83v1.28h2.31A2.83 2.83 0 0122 9.44v9.24a2.83 2.83 0 01-2.82 2.83H4.82A2.83 2.83 0 012 18.68V9.43A2.83 2.83 0 014.82 6.6h2.31zm-3.59 8.14v3.92a1.3 1.3 0 001.29 1.29h14.36a1.3 1.3 0 001.29-1.29v-3.92a21.23 21.23 0 01-16.92 0zm16.92-1.69a19.63 19.63 0 01-16.92 0V9.43a1.3 1.3 0 011.29-1.29h14.36a1.3 1.3 0 011.29 1.29v3.63zM12 11.74c.42 0 .77.34.77.77 0 .44-.34.78-.77.78s-.77-.34-.77-.77c0-.44.34-.78.77-.78z"/></symbol><symbol id="facebook"><path fill-rule="evenodd" d="M10.12 3.76A6.7 6.7 0 0114.69 2h3.23c.59 0 1.08.45 1.08 1v4c0 .55-.48 1-1.08 1h-3.23v1h3.23c.33 0 .64.14.85.38.2.24.28.56.2.86l-1.08 4c-.12.45-.55.76-1.04.76H14.7v6c0 .55-.48 1-1.08 1H9.31c-.59 0-1.08-.45-1.08-1v-6H6.08C5.49 15 5 14.55 5 14v-4c0-.55.48-1 1.08-1h2.15V8c0-1.59.68-3.12 1.89-4.24zm4.57.24a4.5 4.5 0 00-3.05 1.17A3.86 3.86 0 0010.38 8v2c0 .55-.48 1-1.08 1H7.15v2H9.3c.59 0 1.08.45 1.08 1v6h2.15v-6c0-.55.48-1 1.08-1H16l.54-2h-2.93c-.59 0-1.08-.45-1.08-1V8c0-.53.23-1.04.63-1.41.4-.38.95-.59 1.52-.59h2.15V4h-2.15z"/></symbol><symbol id="home"><path fill-rule="evenodd" d="M11.46 2.23c.3-.3.79-.3 1.09 0l9.23 9.23a.76.76 0 01-.54 1.31h-1.28v6.41A2.83 2.83 0 0117.14 22H6.87a2.83 2.83 0 01-2.82-2.82v-6.41H2.77a.78.78 0 01-.71-.47.77.77 0 01.17-.84l9.23-9.23zm7.64 9a.78.78 0 00-.7.76v7.18a1.3 1.3 0 01-1.29 1.29h-1.28v-5.38c0-.75-.3-1.47-.83-1.99s-1.25-.83-1.99-.83h-2.05a2.83 2.83 0 00-2.82 2.82v5.38H6.86a1.3 1.3 0 01-1.29-1.29V12c0-.4-.3-.73-.69-.77h-.27l7.37-7.37 7.37 7.37h-.27zm-9.41 9.23h4.62v-5.38a1.3 1.3 0 00-1.29-1.29h-2.05a1.3 1.3 0 00-1.29 1.29v5.38z"/></symbol><symbol id="information"><path fill-rule="evenodd" d="M4.93 4.93a10 10 0 1114.14 14.12A10 10 0 014.93 4.93zM12 4a8 8 0 100 16.02A8 8 0 0012 4zm-1 5a1 1 0 011-1h.01c.55 0 1 .45 1 1s-.45 1-1 1H12a1 1 0 01-1-1zm0 2c-.55 0-1 .45-1 1s.45 1 1 1v3a1 1 0 001 1h1c.55 0 1-.45 1-1s-.45-1-1-1v-3a1 1 0 00-1-1h-1z"/></symbol><symbol id="instagram"><path fill-rule="evenodd" d="M8 5a3 3 0 00-3 3v8a3 3 0 003 3h8a3 3 0 003-3V8a3 3 0 00-3-3H8zm-3.54-.54A5 5 0 018 3h8a5 5 0 015 5v8a5 5 0 01-5 5H8a5 5 0 01-5-5V8c0-1.33.53-2.6 1.46-3.54zm4.71 4.71a4 4 0 115.66 5.67 4 4 0 01-5.66-5.67zM12 10a2.03 2.03 0 00-2 2 2.03 2.03 0 002 2 2.03 2.03 0 002-2 2.03 2.03 0 00-2-2zm5.5-2.5a1 1 0 00-1-1 1 1 0 000 2.01 1 1 0 001-1z"/></symbol><symbol id="list"><path d="M10.49 1.5h-6c-.83 0-1.5.67-1.5 1.5v6c0 .83.67 1.5 1.5 1.5h6c.83 0 1.5-.67 1.5-1.5V3c0-.83-.67-1.5-1.5-1.5zm.5 7.5c0 .28-.22.5-.5.5h-6c-.28 0-.5-.22-.5-.5V3c0-.28.22-.5.5-.5h6c.28 0 .5.22.5.5v6zM9.98 4.45c.19.2.19.51 0 .71L7.37 7.78a.47.47 0 01-.35.15c-.12 0-.24-.04-.34-.13L5.14 6.36a.504.504 0 01-.02-.71c.19-.2.51-.21.71-.02l1.19 1.11 2.26-2.28c.2-.2.51-.2.71 0zm.51 7.05h-6c-.83 0-1.5.67-1.5 1.5v6c0 .83.67 1.5 1.5 1.5h6c.83 0 1.5-.67 1.5-1.5v-6c0-.83-.67-1.5-1.5-1.5zm.5 7.5c0 .28-.22.5-.5.5h-6c-.28 0-.5-.22-.5-.5v-6c0-.28.22-.5.5-.5h6c.28 0 .5.22.5.5v6zm-1.01-4.55c.19.2.19.51 0 .71l-2.61 2.62a.47.47 0 01-.35.15c-.12 0-.24-.04-.34-.13l-1.54-1.44a.504.504 0 01-.02-.71c.19-.2.51-.21.71-.02l1.19 1.11 2.26-2.28c.2-.2.51-.2.71 0zm.51 7.05h-6c-.83 0-1.5.67-1.5 1.5v6c0 .83.67 1.5 1.5 1.5h6c.83 0 1.5-.67 1.5-1.5v-6c0-.83-.67-1.5-1.5-1.5zm.5 7.5c0 .28-.22.5-.5.5h-6c-.28 0-.5-.22-.5-.5v-6c0-.28.22-.5.5-.5h6c.28 0 .5.22.5.5v6zm-1.01-4.54c.19.2.19.51 0 .71l-2.61 2.62a.47.47 0 01-.35.15c-.12 0-.24-.04-.34-.13l-1.54-1.44a.504.504 0 01-.02-.71c.19-.21.51-.22.71-.03l1.19 1.11 2.26-2.28c.2-.19.51-.19.71 0zM13.81 3.9c0-.28.22-.5.5-.5H28.5c.28 0 .5.22.5.5s-.22.5-.5.5H14.31c-.28 0-.5-.22-.5-.5zm0 2c0-.28.22-.5.5-.5h8.67c.28 0 .5.22.5.5s-.22.5-.5.5h-8.67c-.28 0-.5-.22-.5-.5zm0 2c0-.28.22-.5.5-.5h4.68c.28 0 .5.22.5.5s-.22.5-.5.5h-4.68c-.28 0-.5-.22-.5-.5zm15.19 6c0 .28-.22.5-.5.5H14.31c-.28 0-.5-.22-.5-.5s.22-.5.5-.5H28.5c.28 0 .5.22.5.5zm-15.19 2c0-.28.22-.5.5-.5h8.67c.28 0 .5.22.5.5s-.22.5-.5.5h-8.67c-.28 0-.5-.22-.5-.5zm0 2c0-.28.22-.5.5-.5h4.68c.28 0 .5.22.5.5s-.22.5-.5.5h-4.68c-.28 0-.5-.22-.5-.5zm15.19 6c0 .28-.22.5-.5.5H14.31c-.28 0-.5-.22-.5-.5s.22-.5.5-.5H28.5c.28 0 .5.22.5.5zm-5.52 2c0 .28-.22.5-.5.5h-8.67c-.28 0-.5-.22-.5-.5s.22-.5.5-.5h8.67c.28 0 .5.22.5.5zm-3.99 2c0 .28-.22.5-.5.5h-4.68c-.28 0-.5-.22-.5-.5s.22-.5.5-.5h4.68c.28 0 .5.22.5.5z"/></symbol><symbol id="map"><path fill-rule="evenodd" d="M8.92 2a.76.76 0 00-.37.1L2.43 5.16a.78.78 0 00-.43.69v13.33c0 .27.14.51.36.65.23.14.51.15.75.03l5.81-2.9 3.76 1.88a.77.77 0 10.69-1.37l-3.68-1.84V4.01l4.62 2.31v7.22a.77.77 0 001.54 0V6.32l4.61-2.31v7.47a.77.77 0 001.54 0V2.77a.77.77 0 00-.36-.65.77.77 0 00-.75-.03l-5.81 2.9-5.81-2.9a.84.84 0 00-.34-.08zm-.77 2.01L3.54 6.32v11.61l4.61-2.31V4.01zM19.82 15.5a.77.77 0 00-1.28-.86l-2.05 3.08a.77.77 0 00.64 1.2h2.67l-1.25 1.88a.77.77 0 001.28.86l2.05-3.08a.77.77 0 00-.64-1.2h-2.67l1.25-1.88z"/></symbol><symbol id="parent"><path d="M28.94 4.61c-4.34.51-8.47-.77-12.64-3.89L16 .5l-.3.22C11.39 3.86 7.14 5.18 3.07 4.6l-.57-.08v13.51c0 9.22 12.81 13.25 13.35 13.42l.15.05.15-.05c.55-.17 13.35-4.19 13.35-13.42V4.54l-.56.07zm-.44 13.43c0 7.98-11.08 11.94-12.5 12.41-1.42-.47-12.5-4.43-12.5-12.41V5.66c4.07.41 8.27-.92 12.5-3.92 4.05 2.96 8.26 4.28 12.5 3.91v12.39zm-12.22-5.98h-.56C11.46 12.06 8 15.5 8 19.73v5.11l.32.12c1.09.42 2.19.74 3.29.98.33.07.66.13 1 .19v-3.34c0-.93.75-1.67 1.68-1.67h3.42c.93 0 1.68.75 1.68 1.67v3.34c.34-.06.67-.12 1-.19 1.1-.24 2.2-.56 3.29-.98l.32-.12v-5.11c0-4.23-3.46-7.67-7.72-7.67zM23 24.16c-.87.31-1.74.57-2.61.77v-2.14c0-1.47-1.2-2.67-2.68-2.67h-3.42c-1.48 0-2.68 1.19-2.68 2.67v2.14c-.87-.2-1.74-.46-2.61-.77v-4.42c0-3.68 3.01-6.68 6.72-6.68h.56c3.71 0 6.72 3 6.72 6.68v4.42zm-7-12.43c2.21 0 4-1.78 4-3.98s-1.79-3.98-4-3.98-4 1.78-4 3.98 1.79 3.98 4 3.98zm0-6.97a3 3 0 013 2.99 3 3 0 01-6 0 3 3 0 013-2.99zm0 9.56a2.83 2.83 0 100 5.66 2.83 2.83 0 100-5.66zm0 4.66c-1.01 0-1.84-.83-1.84-1.83s.83-1.83 1.84-1.83 1.84.83 1.84 1.83-.83 1.83-1.84 1.83z"/></symbol><symbol id="pause"><path fill-rule="evenodd" d="M16 1.5C7.99 1.5 1.5 7.99 1.5 16S7.99 30.5 16 30.5 30.5 24.01 30.5 16 24.01 1.5 16 1.5zm0 28C8.54 29.5 2.5 23.46 2.5 16S8.54 2.5 16 2.5 29.5 8.54 29.5 16 23.46 29.5 16 29.5zM12.5 9a2.5 2.5 0 00-2.5 2.5v9a2.5 2.5 0 005 0v-9A2.5 2.5 0 0012.5 9zM14 20.5c0 .83-.67 1.5-1.5 1.5s-1.5-.67-1.5-1.5v-9c0-.83.67-1.5 1.5-1.5s1.5.67 1.5 1.5v9zM19.5 9a2.5 2.5 0 00-2.5 2.5v9a2.5 2.5 0 005 0v-9A2.5 2.5 0 0019.5 9zM21 20.5c0 .83-.67 1.5-1.5 1.5s-1.5-.67-1.5-1.5v-9c0-.83.67-1.5 1.5-1.5s1.5.67 1.5 1.5v9z"/></symbol><symbol id="pin-connected"><path fill-rule="evenodd" d="M11.86 23c-2.7-1.99-8.11-7.6-8.11-14.12S9.16.91 11.86 1c2.8 0 8.39 1.58 8.39 7.88S14.66 20.92 11.86 23zM7.44 3.75c-.17 2.91.81 5.1 1.82 6.56a4.12 4.12 0 105.43-.05 10.36 10.36 0 001.87-6.51s-2.05 1.46-3.16 4.32a10.03 10.03 0 00-.69 3.7c.12.06.24.12.35.21l.11.09A1.75 1.75 0 0112 15.14a1.76 1.76 0 01-.89-3.28l.18-.09a9.45 9.45 0 00-.67-3.5c-1.1-2.89-3.18-4.52-3.18-4.52z"/></symbol><symbol id="pin-planning"><path fill-rule="evenodd" d="M11.86 23c-2.7-1.99-8.11-7.6-8.11-14.12S9.16.91 11.86 1c2.8 0 8.39 1.58 8.39 7.88S14.66 20.92 11.86 23zM7.8 8.66h1.77V6.89L7.51 4.83a3.52 3.52 0 015 2.59 3.6 3.6 0 01-.29 2.12l1.35 1.35c.44 0 .88.18 1.22.51l1.73 1.73a1.75 1.75 0 01-2.47 2.47l-1.73-1.73a1.72 1.72 0 01-.51-1.22l-1.35-1.35a3.52 3.52 0 01-5-2.59 3.6 3.6 0 01.29-2.12l2.06 2.06z"/></symbol><symbol id="play-video"><path d="M22.96 10.42c2.72 1.59 2.72 5.57 0 7.17L6.12 27.44C3.4 29.03 0 27.04 0 23.86V4.14C0 .96 3.4-1.03 6.12.56l16.84 9.86z"/></symbol><symbol id="router" viewBox="0 0 24 24"><path fill-rule="evenodd" d="M11.6 4.8c1-.5 2-.8 3.1-.8s2.2.3 3.1.8c1 .5 1.8 1.3 2.4 2.2.3.5.9.6 1.4.2.4-.3.5-1 .2-1.4-.8-1.2-1.9-2.1-3.1-2.8-1.2-.7-2.6-1-4-1s-2.8.3-4 1c-1.2.7-2.3 1.6-3.1 2.8-.3.5-.2 1.1.2 1.4.4.3 1 .2 1.4-.2.6-.9 1.5-1.7 2.4-2.2zM14.7 8c-.5 0-.9.1-1.3.3-.4.2-.8.5-1 .9-.3.5-.9.6-1.4.2-.4-.3-.5-1-.2-1.4.5-.7 1-1.2 1.7-1.5.7-.4 1.5-.6 2.2-.6s1.5.2 2.2.6c.7.4 1.3.9 1.7 1.5.3.5.2 1.1-.2 1.4-.4.3-1 .2-1.4-.2-.3-.4-.6-.7-1-.9-.4-.2-.9-.3-1.3-.3zm1 2.9c0-.6-.4-1-1-1s-1 .5-1 1v1H4.9c-.8 0-1.5.3-2.1.9-.5.6-.9 1.3-.9 2.1v4c0 .8.3 1.6.9 2.1.5.6 1.3.9 2.1.9h13.7c.8 0 1.5-.3 2.1-.9.5-.6.9-1.3.9-2.1v-4c0-.8-.3-1.6-.9-2.1-.5-.6-1.3-.9-2.1-.9h-2.9v-1zm-1 3H4.9c-.3 0-.5.1-.7.3-.2.2-.3.4-.3.7v4c0 .3.1.5.3.7s.4.3.7.3h13.7c.3 0 .5-.1.7-.3.2-.2.3-.4.3-.7v-4c0-.3-.1-.5-.3-.7a.9.9 0 00-.7-.3h-3.9zm2.9 3.1c0-.6-.4-1-1-1s-1 .5-1 1c0 .6.4 1 1 1s1-.5 1-1zm-4.9-1c.5 0 1 .5 1 1 0 .6-.4 1-1 1s-1-.5-1-1c0-.6.4-1 1-1z"/></symbol><symbol id="settings"><path fill-rule="evenodd" d="M11.55 4.19c.12-.12.28-.19.45-.19s.33.07.45.19.19.28.19.45v.07a2.36 2.36 0 004 1.68l.06-.06a.6.6 0 01.21-.14.69.69 0 01.24-.05.64.64 0 01.45.19.6.6 0 01.14.21c.03.08.05.16.05.24a.64.64 0 01-.19.45l-.05.05a2.35 2.35 0 00-.54 2.41c.01.08.04.17.07.25a2.34 2.34 0 002.15 1.42h.14c.17 0 .33.07.45.19s.19.28.19.45-.07.33-.19.45a.64.64 0 01-.45.19h-.08a2.36 2.36 0 00-1.68 4l.06.06a.6.6 0 01.14.21c.03.08.05.16.05.24a.64.64 0 01-.19.45.6.6 0 01-.21.14.69.69 0 01-.24.05.64.64 0 01-.45-.19l-.05-.05a2.35 2.35 0 00-4 1.67v.14c0 .17-.07.33-.19.45s-.28.19-.45.19-.33-.07-.45-.19a.64.64 0 01-.19-.45v-.1a2.36 2.36 0 00-1.51-2.14 2.36 2.36 0 00-2.56.48l-.06.06a.6.6 0 01-.21.14.69.69 0 01-.24.05.64.64 0 01-.45-.19.6.6 0 01-.14-.21.69.69 0 01-.05-.24.64.64 0 01.19-.45l.05-.05a2.35 2.35 0 00.47-2.59 2.34 2.34 0 00-2.15-1.42h-.14a.64.64 0 01-.45-.19c-.12-.12-.19-.28-.19-.45s.07-.33.19-.45a.64.64 0 01.45-.19h.1c.47-.01.93-.16 1.31-.44.37-.27.66-.64.83-1.07a2.36 2.36 0 00-.48-2.56l-.06-.06a.6.6 0 01-.14-.21.69.69 0 01-.05-.24.64.64 0 01.19-.45.6.6 0 01.21-.14.69.69 0 01.24-.05.64.64 0 01.45.19l.05.05c.34.34.76.56 1.22.64.4.07.8.04 1.18-.09.08-.01.17-.04.25-.07a2.34 2.34 0 001.42-2.15v-.14c0-.17.07-.33.19-.45zM12 2a2.63 2.63 0 00-2.63 2.63v.14c0 .07-.02.13-.06.19a.27.27 0 01-.07.08.98.98 0 00-.16.05.27.27 0 01-.2.02.31.31 0 01-.18-.09l-.04-.04a2.67 2.67 0 00-3.74 0 2.64 2.64 0 00-.57 2.88c.13.32.33.61.57.86l.04.04s.08.11.09.18c.01.07 0 .14-.02.2l-.02.06a.33.33 0 01-.31.22h-.06a2.63 2.63 0 000 5.26h.14c.07 0 .13.02.19.06.06.04.1.09.13.15a.3.3 0 01.02.21.31.31 0 01-.09.18l-.04.04a2.64 2.64 0 003.74 3.73l.04-.04s.11-.08.18-.09c.07-.01.14 0 .2.02l.06.02a.33.33 0 01.22.31v.06a2.63 2.63 0 005.26 0v-.14c0-.07.02-.13.06-.19.04-.06.09-.1.15-.13a.34.34 0 01.2-.03c.07.01.13.04.18.09l.04.04a2.67 2.67 0 003.74 0 2.67 2.67 0 000-3.74l-.04-.04s-.08-.11-.09-.18a.44.44 0 01.02-.2c.03-.07.07-.13.13-.16a.33.33 0 01.19-.06h.07a2.63 2.63 0 000-5.26h-.14a.33.33 0 01-.19-.06.27.27 0 01-.08-.07.98.98 0 00-.05-.16.27.27 0 01-.02-.2.31.31 0 01.09-.18l.04-.04a2.64 2.64 0 00.57-2.88 2.7 2.7 0 00-2.43-1.63 2.67 2.67 0 00-1.87.77l-.04.04s-.11.08-.18.09a.44.44 0 01-.2-.02.38.38 0 01-.15-.13.33.33 0 01-.06-.19V4.6A2.63 2.63 0 0012 1.97zm7.08 17.02l-.71-.71.71.71zM10 12c0-1.1.9-2 2-2s2 .9 2 2-.9 2-2 2-2-.9-2-2zm2-4a4 4 0 100 8 4 4 0 000-8z"/></symbol><symbol id="speed"><path d="M22.23 10.39a.472.472 0 00-.51.03l-6.25 4.26v-3.85c0-.19-.11-.36-.27-.44a.49.49 0 00-.52.03L7.1 15.59c-.14.09-.22.24-.22.41s.08.32.22.41l7.58 5.17c.09.06.19.09.29.09.08 0 .16-.02.23-.06.16-.08.27-.25.27-.44v-3.85l6.25 4.26c.08.06.18.09.28.09.08 0 .16-.02.23-.06.17-.08.27-.25.27-.44V10.83c0-.19-.1-.36-.27-.44zm-7.76 9.83L8.27 16l6.2-4.22v8.44zm7.03 0l-6.03-4.11-.16-.11.16-.11 6.03-4.11v8.44zM16 1.5C8 1.5 1.5 8 1.5 16S8 30.5 16 30.5 30.5 24 30.5 16 24 1.5 16 1.5zm0 28C8.56 29.5 2.5 23.44 2.5 16S8.56 2.5 16 2.5 29.5 8.56 29.5 16 23.44 29.5 16 29.5z"/></symbol><symbol id="star"><path d="M23.46 30c-.3 0-.61-.08-.9-.23l-6.33-3.47a.47.47 0 00-.46 0l-6.33 3.46c-.65.36-1.43.3-2.03-.16a2.05 2.05 0 01-.77-1.97l1.2-7.36a.5.5 0 00-.14-.45L2.59 14.6a2.07 2.07 0 01-.49-2.07c.23-.73.83-1.26 1.56-1.36l7.07-1.08c.16-.03.3-.13.36-.27l3.18-6.7A1.9 1.9 0 0116 1.99c.63 0 1.2.32 1.56.84h.03l.15.29 3.17 6.69c.07.15.22.26.37.29l7.06 1.08c.74.12 1.34.65 1.56 1.38.22.73.03 1.52-.5 2.05l-5.11 5.21a.55.55 0 00-.14.46l1.2 7.35c.12.76-.17 1.52-.77 1.97-.34.26-.73.39-1.13.39zM16 25.22c.24 0 .47.06.68.17l6.33 3.47c.32.18.7.15.99-.08a1 1 0 00.38-.97l-1.2-7.36c-.07-.5.08-1 .42-1.35l5.11-5.22a1 1 0 00.24-1 .95.95 0 00-.77-.68l-7.07-1.08a1.52 1.52 0 01-1.1-.84l-3.19-6.7a.92.92 0 00-.84-.55c-.34-.02-.69.21-.86.55l-3.17 6.69c-.2.45-.61.77-1.1.85L3.78 12.2a.93.93 0 00-.77.67c-.11.37-.02.75.24 1.02l5.11 5.21c.35.36.51.87.42 1.37l-1.2 7.35c-.06.38.08.74.38.96a.9.9 0 001 .08l6.33-3.46c.22-.12.45-.18.69-.18z"/></symbol><symbol id="store"><path fill-rule="evenodd" d="M3 3a1 1 0 011-1h2a1 1 0 011 1v1.07L20.07 5a1 1 0 01.92 1.14l-1 7A1 1 0 0119 14H7v2h10a3 3 0 11-2.83 2H8.83A3 3 0 115 16.17V4.01H4a1 1 0 01-1-1zm4 3.07V12h11.13l.73-5.08L7 6.07zm9.29 12.22c.19-.19.44-.29.71-.29s.52.11.71.29.29.44.29.71-.11.52-.29.71-.44.29-.71.29-.52-.11-.71-.29S16 19.27 16 19s.11-.52.29-.71zm-11 0c.19-.19.44-.29.71-.29s.52.11.71.29c.19.19.29.44.29.71s-.11.52-.29.71c-.19.19-.44.29-.71.29s-.52-.11-.71-.29C5.1 19.52 5 19.27 5 19s.11-.52.29-.71z"/></symbol><symbol id="support"><path fill-rule="evenodd" d="M7.05 5.86C8.36 4.61 10.14 3.91 12 3.91s3.64.7 4.95 1.95A6.52 6.52 0 0119 10.57v.16a3.08 3.08 0 00-1-.16h-1c-.8 0-1.56.3-2.12.84a2.8 2.8 0 00-.88 2.02v2.86c0 .76.32 1.48.88 2.02.4.38.9.64 1.44.76-.14.1-.32.19-.52.29-.92.44-2.26.74-3.8.74-.55 0-1 .43-1 .95s.45.95 1 .95c1.78 0 3.44-.34 4.69-.94.93-.44 1.81-1.12 2.16-2.04A2.92 2.92 0 0021 16.28v-5.71c0-2.27-.95-4.45-2.64-6.06C16.67 2.9 14.38 2 12 2s-4.68.9-6.36 2.51A8.37 8.37 0 003 10.57v5.71c0 .76.32 1.48.88 2.02s1.33.84 2.12.84h1c.8 0 1.56-.3 2.12-.84a2.8 2.8 0 00.88-2.02v-2.86a2.8 2.8 0 00-.88-2.02A3.06 3.06 0 007 10.56H6c-.34 0-.68.06-1 .16v-.16a6.5 6.5 0 012.05-4.71zM19 13.43a.96.96 0 00-.29-.67 1.02 1.02 0 00-.71-.28h-1c-.27 0-.52.1-.71.28a.92.92 0 00-.29.67v2.86c0 .25.11.49.29.67.19.18.44.28.71.28h1c.27 0 .52-.1.71-.28a.92.92 0 00.29-.67v-2.86zM5 16.29v-2.86c0-.25.11-.49.29-.67.19-.18.44-.28.71-.28h1c.27 0 .52.1.71.28.19.18.29.42.29.67v2.86c0 .25-.11.49-.29.67-.19.18-.44.28-.71.28H6c-.27 0-.52-.1-.71-.28a.92.92 0 01-.29-.67z"/></symbol><symbol id="tariff-bold"><path fill-rule="evenodd" d="M16 3a1 1 0 10-2 0v2a1 1 0 102 0V3zM5 4a1 1 0 00-1 1v16a1 1 0 001 1h13a1 1 0 001-1v-8a1 1 0 10-2 0v7H6V6h5.93a1 1 0 100-2H5zm4 12a1 1 0 100 2h5a1 1 0 100-2H9zM8 9a1 1 0 011-1h5a1 1 0 011 1v4a1 1 0 01-1 1H9a1 1 0 01-1-1V9zm2 1v2h3v-2h-3zm10.7-5.3l-2 2a1 1 0 11-1.4-1.4l2-2a1 1 0 111.4 1.4zM19 8a1 1 0 100 2h2a1 1 0 100-2h-2z" clip-rule="evenodd"/></symbol><symbol id="tariff-home"><path fill-rule="evenodd" d="M34.4 19.5v12.7c0 2.1-1.7 3.8-3.8 3.8h-7V24.9c0-.4-.4-.8-.8-.8h-5.6c-.4 0-.8.4-.8.8V36h-7a3.8 3.8 0 01-3.8-3.8V19.5L20 10.4l14.4 9.1z"/><path d="M4.2 18.5c-1 .6-2.2.3-2.8-.6-.6-1-.3-2.2.6-2.8L18.9 4.3c.7-.4 1.6-.4 2.2 0l7.7 4.9V7.9c0-.5.4-.9.9-.9h3.1c.5 0 .9.4.9.9v4.5l4.2 2.7c1 .6 1.2 1.9.6 2.8-.6 1-1.9 1.2-2.8.6l-15.8-10-15.8 10h.1z"/></symbol><symbol id="tariff-slim"><path fill-rule="evenodd" d="M15.83 2.77a.77.77 0 00-1.54 0v2.05a.77.77 0 001.54 0V2.77zM4.77 4.05a.76.76 0 00-.77.77v16.41c0 .42.35.77.77.77h13.37c.43 0 .77-.34.77-.77v-8.21a.77.77 0 00-1.54 0v7.44H5.54V5.59h6.36a.77.77 0 000-1.54H4.77zm4.12 12.31a.77.77 0 000 1.54h5.14a.77.77 0 000-1.54H8.89zm-.78-7.44c0-.42.35-.77.77-.77h5.14c.43 0 .77.34.77.77v4.1c0 .42-.35.77-.77.77H8.88a.76.76 0 01-.77-.77v-4.1zm1.55.77v2.56h3.6V9.69h-3.6zm11.09-6.44c.3.3.3.79 0 1.09l-2.06 2.05A.77.77 0 0117.6 5.3l2.06-2.05c.3-.3.79-.3 1.09 0zm-1.58 4.9a.77.77 0 000 1.54h2.06a.77.77 0 000-1.54h-2.06z"/></symbol><symbol id="tariff-suitcase"><path fill-rule="evenodd" d="M36 10h-9V6a2 2 0 00-2-2H15a2 2 0 00-2 2v4H4a2 2 0 00-2 2v7c0 2 1.5 2 2 2h13v-2c0-.5.5-1 1-1h4c.5 0 1 .5 1 1v2h13c1 0 2-.5 2-2v-7a2 2 0 00-2-2zm-20 0V8c0-.5.5-1 1-1h6c.5 0 1 .5 1 1v2h-8z"/><path d="M2 34V23.5c.3.2 1.2.5 2 .5h13v2c0 .6.4 1 1 1h4c.6 0 1-.4 1-1v-2h13c1.2 0 1.8-.3 2-.5V34a2 2 0 01-2 2H4a2 2 0 01-2-2z"/></symbol><symbol id="tariff-tv"><path d="M4 33h32a2 2 0 012 2 2 2 0 01-2 2H4a2 2 0 01-2-2c0-1.1.9-2 2-2zM36 7.5H24.4L26 3.2v-.5c0-.6-.4-1.2-1-1.4-.8-.3-1.6.1-1.9.9l-1.5 4-1.5-4c-.2-.6-.8-1-1.4-1h-.5c-.8.3-1.2 1.2-.9 1.9l1.6 4.3H4a2 2 0 00-2 2v21c0 1.1.9 2 2 2h32a2 2 0 002-2V9.5a2 2 0 00-2-2zm-10.5 13L18 24.9c-.7.4-1.5 0-1.5-.9v-8.9c0-.8.8-1.3 1.5-.9l7.5 4.4c.7.4.7 1.3 0 1.7v.2z"/></symbol><symbol id="tariff-wrench"><rect width="8.6" height="14.7" x="24.52" y="21.24" rx="2" ry="2" transform="rotate(-45 28.83 28.6)"/><path d="M18.8 23.3l-2.2-2.2A8.94 8.94 0 014 14.5c-.3-1.8 0-3.7.7-5.3l5.2 5.2h4.4V10L9.1 4.8a8.94 8.94 0 0112.6 6.6c.3 1.8 0 3.7-.7 5.3l2.2 2.2c.5.5.5 1.2 0 1.6l-2.8 2.8c-.5.5-1.2.5-1.6 0z"/></symbol><symbol id="tariffs"><path fill-rule="evenodd" d="M4.29 5.29A.99.99 0 015 5h14a.99.99 0 011 1v12c0 .27-.11.52-.29.71s-.44.29-.71.29H5a.99.99 0 01-1-1V6c0-.27.11-.52.29-.71zM5 3a3 3 0 00-3 3v12a3 3 0 003 3h14a3 3 0 003-3V6a3 3 0 00-3-3H5zm2 4c-.55 0-1 .45-1 1s.45 1 1 1h10c.55 0 1-.45 1-1s-.45-1-1-1H7zm-1 5a1 1 0 011-1h10c.55 0 1 .45 1 1s-.45 1-1 1H7a1 1 0 01-1-1zm1 3c-.55 0-1 .45-1 1s.45 1 1 1h10c.55 0 1-.45 1-1s-.45-1-1-1H7z"/></symbol><symbol id="tg-chatbot"><path fill-rule="evenodd" d="M4.59 5.09c.38-.38.88-.59 1.41-.59h12c.53 0 1.04.21 1.41.59.38.38.59.88.59 1.41v8c0 .53-.21 1.04-.59 1.41-.38.38-.88.59-1.41.59h-5a1 1 0 00-.51.14L9 18.73V17.5a1 1 0 00-1-1H6c-.53 0-1.04-.21-1.41-.59A1.98 1.98 0 014 14.5v-8c0-.53.21-1.04.59-1.41zM6 2.5a4 4 0 00-4 4v8a4 4 0 004 4h1v2a1 1 0 00.51.87c.31.18.7.17 1.01-.01l4.76-2.86H18a4 4 0 004-4v-8a4 4 0 00-4-4H6zm3.5 5c-.55 0-1 .45-1 1s.45 1 1 1h.01c.55 0 1-.45 1-1s-.45-1-1-1H9.5zm4 1a1 1 0 011-1h.01c.55 0 1 .45 1 1s-.45 1-1 1h-.01a1 1 0 01-1-1zm-3.29 3.3a1 1 0 10-1.42 1.4 4.46 4.46 0 006.42 0 1 1 0 10-1.42-1.4 2.51 2.51 0 01-2.76.56 2.55 2.55 0 01-.82-.56z"/></symbol><symbol id="tg"><path fill-rule="evenodd" d="M21.66 3.25a1 1 0 01.31.99l-4 16c-.09.35-.36.62-.7.72-.35.1-.72 0-.97-.26l-4.18-4.18-2.31 3.08a1 1 0 01-.96.39 1 1 0 01-.79-.67l-1.87-5.61-3.63-1.81a1 1 0 01-.55-.94c.02-.4.27-.74.64-.89l17.99-7a.98.98 0 011.02.18zm-8.94 11.06l-.02-.02-.28-.28 3.29-3.29a1 1 0 10-1.41-1.41l-4 4a1 1 0 000 1.41l.39.39-1.33 1.78-1.4-4.19a.99.99 0 00-.5-.58l-1.98-.99 14.1-5.48-3.1 12.41-3.74-3.74z"/></symbol></svg>