<svg xmlns="http://www.w3.org/2000/svg" width="24" height="24" viewBox="0 0 24 24"><path fill-rule="evenodd" d="M8.48 2.89a4.95 4.95 0 0 1 6.9 0 4.67 4.67 0 0 1 0 6.72 4.95 4.95 0 0 1-6.9 0 4.67 4.67 0 0 1 0-6.72Zm3.45.11a3.4 3.4 0 0 0-2.36.95 3.2 3.2 0 0 0 0 4.6 3.38 3.38 0 0 0 4.72 0 3.2 3.2 0 0 0 0-4.6A3.38 3.38 0 0 0 11.93 3ZM9.88 15a3.4 3.4 0 0 0-2.36.95 3.2 3.2 0 0 0-.98 2.3v2c0 .41-.34.75-.77.75S5 20.66 5 20.25v-2c0-1.26.51-2.47 1.43-3.36a4.95 4.95 0 0 1 3.45-1.39h2.57c.43 0 .77.34.77.75s-.34.75-.77.75H9.88Zm10.01-.25v.85c.45.12.86.35 1.2.67l.76-.43a.78.78 0 0 1 1.05.27c.21.36.09.82-.28 1.02l-.76.43a2.57 2.57 0 0 1 0 1.34l.76.43c.37.21.49.67.28 1.02a.77.77 0 0 1-1.05.27l-.76-.43a2.8 2.8 0 0 1-1.2.67v.85c0 .41-.34.75-.77.75s-.77-.34-.77-.75v-.85a2.8 2.8 0 0 1-1.2-.67l-.76.43a.78.78 0 0 1-1.05-.27.73.73 0 0 1 .28-1.02l.76-.43a2.52 2.52 0 0 1 0-1.34l-.76-.43a.74.74 0 0 1-.28-1.02.77.77 0 0 1 1.05-.27l.76.43a2.8 2.8 0 0 1 1.2-.67v-.85c0-.41.34-.75.77-.75s.77.34.77.75Zm.36 4.08-.03.04-.02.04a1.33 1.33 0 0 1-1.09.59 1.29 1.29 0 0 1-1.11-.62s0-.02 0-.02a1.23 1.23 0 0 1 .21-1.5c.24-.23.57-.37.91-.37a1.29 1.29 0 0 1 1.29 1.25c0 .2-.05.41-.15.58Z"/></svg>