<svg xmlns="http://www.w3.org/2000/svg" width="24" height="24" viewBox="0 0 24 24"><path fill-rule="evenodd" d="M8.17 2.76A10.02 10.02 0 0 1 22 12a10.06 10.06 0 0 1-3.47 7.57l-.1.08A9.9 9.9 0 0 1 12 21.99a10.06 10.06 0 0 1-7.07-2.93A9.98 9.98 0 0 1 8.17 2.75Zm9.95 14.4a8.04 8.04 0 0 0 1.28-8.22A7.9 7.9 0 0 0 12.01 4a8.03 8.03 0 0 0-8 8 8.03 8.03 0 0 0 1.89 5.16A5.02 5.02 0 0 1 10.01 15h4a5.04 5.04 0 0 1 4.12 2.16ZM7.38 18.53A3 3 0 0 1 10 17h4a3.02 3.02 0 0 1 2.61 1.53A8.15 8.15 0 0 1 11.99 20a8.03 8.03 0 0 1-4.62-1.47ZM9.17 7.17a4 4 0 1 1 5.66 5.67 4 4 0 0 1-5.66-5.67ZM12 8c-.53 0-1.04.21-1.41.59a1.98 1.98 0 0 0 0 2.82 1.97 1.97 0 0 0 2.82 0 1.97 1.97 0 0 0 0-2.82A1.98 1.98 0 0 0 12 8Z"/></svg>