<svg xmlns="http://www.w3.org/2000/svg" width="24" height="24" viewBox="0 0 24 24"><path fill-rule="evenodd" d="M12 2a10.1 10.1 0 0 0-7.07 2.93 9.98 9.98 0 0 0 3.24 16.31A10.02 10.02 0 0 0 22 12a10.06 10.06 0 0 0-2.93-7.07A9.98 9.98 0 0 0 12 2ZM8.76 4.18a8.4 8.4 0 0 1 6.48 0 8.49 8.49 0 0 1 4.58 4.58 8.4 8.4 0 0 1 0 6.48 8.23 8.23 0 0 1-4.58 4.58 8.4 8.4 0 0 1-6.48 0 8.23 8.23 0 0 1-4.58-4.58 8.58 8.58 0 0 1 0-6.48 8.23 8.23 0 0 1 4.58-4.58Zm6.86 5.29a.77.77 0 0 0-1.09-1.09l-6.15 6.15a.77.77 0 0 0 1.09 1.09l6.15-6.15Zm-7.47-.03c0-.71.57-1.28 1.28-1.28s1.28.57 1.28 1.28-.57 1.28-1.28 1.28-1.28-.57-1.28-1.28Zm5.13 5.12c0-.71.57-1.28 1.28-1.28s1.28.57 1.28 1.28-.57 1.28-1.28 1.28-1.28-.57-1.28-1.28Z"/></svg>