<svg xmlns="http://www.w3.org/2000/svg" width="24" height="24" viewBox="0 0 24 24"><path fill-rule="evenodd" d="M5.29 8.29A.99.99 0 0 1 6 8h11a.99.99 0 0 1 1 1v.5a1.5 1.5 0 0 0 1 1.41v2.17a1.5 1.5 0 0 0-1 1.41v.5a.99.99 0 0 1-1 1H6a.99.99 0 0 1-1-1v-6c0-.27.11-.52.29-.71ZM6 6a3 3 0 0 0-3 3v6a3 3 0 0 0 3 3h11a3 3 0 0 0 3-3v-.09a1.5 1.5 0 0 0 1-1.41v-3a1.5 1.5 0 0 0-1-1.41V9a3 3 0 0 0-3-3H6Zm2 4c0-.55-.45-1-1-1s-1 .45-1 1v4c0 .55.45 1 1 1s1-.45 1-1v-4Zm3-1a1 1 0 0 1 1 1v4c0 .55-.45 1-1 1s-1-.45-1-1v-4a1 1 0 0 1 1-1Zm5 1c0-.55-.45-1-1-1s-1 .45-1 1v4c0 .55.45 1 1 1s1-.45 1-1v-4Z"/></svg>