<svg xmlns="http://www.w3.org/2000/svg" width="32" height="32" viewBox="0 0 32 32"><path d="M5.5 9h21c1.65 0 3-1.35 3-3s-1.35-3-3-3h-21c-1.65 0-3 1.35-3 3s1.35 3 3 3Zm0-5h21c1.1 0 2 .9 2 2s-.9 2-2 2h-21c-1.1 0-2-.9-2-2s.9-2 2-2Zm21 6h-21A2.5 2.5 0 0 0 3 12.5v12C3 26.98 5.02 29 7.5 29h17c2.48 0 4.5-2.02 4.5-4.5v-12a2.5 2.5 0 0 0-2.5-2.5ZM28 24.5c0 1.93-1.57 3.5-3.5 3.5h-17C5.57 28 4 26.43 4 24.5v-12c0-.83.67-1.5 1.5-1.5h21c.83 0 1.5.67 1.5 1.5v12ZM22.35 16c0 .28-.22.5-.5.5H10.14c-.28 0-.5-.22-.5-.5s.22-.5.5-.5h11.71c.28 0 .5.22.5.5Z"/></svg>