<svg xmlns="http://www.w3.org/2000/svg" width="24" height="24" viewBox="0 0 24 24"><path fill-rule="evenodd" d="M9.04 4.42c.24-.24.57-.38.91-.38h4.1a1.3 1.3 0 0 1 1.29 1.29v1.28H8.67V5.33c0-.34.14-.67.38-.91ZM7.13 6.61V5.33A2.83 2.83 0 0 1 9.95 2.5h4.1a2.83 2.83 0 0 1 2.82 2.83v1.28h2.31A2.83 2.83 0 0 1 22 9.44v9.24a2.83 2.83 0 0 1-2.82 2.83H4.82A2.83 2.83 0 0 1 2 18.68V9.43A2.83 2.83 0 0 1 4.82 6.6h2.31Zm-3.59 8.14v3.92a1.3 1.3 0 0 0 1.29 1.29h14.36a1.3 1.3 0 0 0 1.29-1.29v-3.92a21.23 21.23 0 0 1-16.92 0Zm16.92-1.69a19.63 19.63 0 0 1-16.92 0V9.43a1.3 1.3 0 0 1 1.29-1.29h14.36a1.3 1.3 0 0 1 1.29 1.29v3.63ZM12 11.74c.42 0 .77.34.77.77 0 .44-.34.78-.77.78s-.77-.34-.77-.77c0-.44.34-.78.77-.78Z"/></svg>