<svg xmlns="http://www.w3.org/2000/svg" width="24" height="24" viewBox="0 0 24 24"><path fill-rule="evenodd" d="M10.12 3.76A6.7 6.7 0 0 1 14.69 2h3.23c.59 0 1.08.45 1.08 1v4c0 .55-.48 1-1.08 1h-3.23v1h3.23c.33 0 .64.14.85.38.2.24.28.56.2.86l-1.08 4c-.12.45-.55.76-1.04.76H14.7v6c0 .55-.48 1-1.08 1H9.31c-.59 0-1.08-.45-1.08-1v-6H6.08C5.49 15 5 14.55 5 14v-4c0-.55.48-1 1.08-1h2.15V8c0-1.59.68-3.12 1.89-4.24Zm4.57.24a4.5 4.5 0 0 0-3.05 1.17A3.86 3.86 0 0 0 10.38 8v2c0 .55-.48 1-1.08 1H7.15v2H9.3c.59 0 1.08.45 1.08 1v6h2.15v-6c0-.55.48-1 1.08-1H16l.54-2h-2.93c-.59 0-1.08-.45-1.08-1V8c0-.53.23-1.04.63-1.41.4-.38.95-.59 1.52-.59h2.15V4h-2.15Z"/></svg>