<svg xmlns="http://www.w3.org/2000/svg" width="24" height="24" viewBox="0 0 24 24"><path fill-rule="evenodd" d="M11.46 2.23c.3-.3.79-.3 1.09 0l9.23 9.23a.76.76 0 0 1-.54 1.31h-1.28v6.41A2.83 2.83 0 0 1 17.14 22H6.87a2.83 2.83 0 0 1-2.82-2.82v-6.41H2.77a.78.78 0 0 1-.71-.47.77.77 0 0 1 .17-.84l9.23-9.23Zm7.64 9a.78.78 0 0 0-.7.76v7.18a1.3 1.3 0 0 1-1.29 1.29h-1.28v-5.38c0-.75-.3-1.47-.83-1.99s-1.25-.83-1.99-.83h-2.05a2.83 2.83 0 0 0-2.82 2.82v5.38H6.86a1.3 1.3 0 0 1-1.29-1.29V12c0-.4-.3-.73-.69-.77h-.27l7.37-7.37 7.37 7.37h-.27Zm-9.41 9.23h4.62v-5.38a1.3 1.3 0 0 0-1.29-1.29h-2.05a1.3 1.3 0 0 0-1.29 1.29v5.38Z"/></svg>