<svg xmlns="http://www.w3.org/2000/svg" width="32" height="32" viewBox="0 0 32 32"><path d="M10.49 1.5h-6c-.83 0-1.5.67-1.5 1.5v6c0 .83.67 1.5 1.5 1.5h6c.83 0 1.5-.67 1.5-1.5V3c0-.83-.67-1.5-1.5-1.5Zm.5 7.5c0 .28-.22.5-.5.5h-6c-.28 0-.5-.22-.5-.5V3c0-.28.22-.5.5-.5h6c.28 0 .5.22.5.5v6ZM9.98 4.45c.19.2.19.51 0 .71L7.37 7.78a.47.47 0 0 1-.35.15c-.12 0-.24-.04-.34-.13L5.14 6.36a.504.504 0 0 1-.02-.71c.19-.2.51-.21.71-.02l1.19 1.11 2.26-2.28c.2-.2.51-.2.71 0Zm.51 7.05h-6c-.83 0-1.5.67-1.5 1.5v6c0 .83.67 1.5 1.5 1.5h6c.83 0 1.5-.67 1.5-1.5v-6c0-.83-.67-1.5-1.5-1.5Zm.5 7.5c0 .28-.22.5-.5.5h-6c-.28 0-.5-.22-.5-.5v-6c0-.28.22-.5.5-.5h6c.28 0 .5.22.5.5v6Zm-1.01-4.55c.19.2.19.51 0 .71l-2.61 2.62a.47.47 0 0 1-.35.15c-.12 0-.24-.04-.34-.13l-1.54-1.44a.504.504 0 0 1-.02-.71c.19-.2.51-.21.71-.02l1.19 1.11 2.26-2.28c.2-.2.51-.2.71 0Zm.51 7.05h-6c-.83 0-1.5.67-1.5 1.5v6c0 .83.67 1.5 1.5 1.5h6c.83 0 1.5-.67 1.5-1.5v-6c0-.83-.67-1.5-1.5-1.5Zm.5 7.5c0 .28-.22.5-.5.5h-6c-.28 0-.5-.22-.5-.5v-6c0-.28.22-.5.5-.5h6c.28 0 .5.22.5.5v6Zm-1.01-4.54c.19.2.19.51 0 .71l-2.61 2.62a.47.47 0 0 1-.35.15c-.12 0-.24-.04-.34-.13l-1.54-1.44a.504.504 0 0 1-.02-.71c.19-.21.51-.22.71-.03l1.19 1.11 2.26-2.28c.2-.19.51-.19.71 0ZM13.81 3.9c0-.28.22-.5.5-.5H28.5c.28 0 .5.22.5.5s-.22.5-.5.5H14.31c-.28 0-.5-.22-.5-.5Zm0 2c0-.28.22-.5.5-.5h8.67c.28 0 .5.22.5.5s-.22.5-.5.5h-8.67c-.28 0-.5-.22-.5-.5Zm0 2c0-.28.22-.5.5-.5h4.68c.28 0 .5.22.5.5s-.22.5-.5.5h-4.68c-.28 0-.5-.22-.5-.5Zm15.19 6c0 .28-.22.5-.5.5H14.31c-.28 0-.5-.22-.5-.5s.22-.5.5-.5H28.5c.28 0 .5.22.5.5Zm-15.19 2c0-.28.22-.5.5-.5h8.67c.28 0 .5.22.5.5s-.22.5-.5.5h-8.67c-.28 0-.5-.22-.5-.5Zm0 2c0-.28.22-.5.5-.5h4.68c.28 0 .5.22.5.5s-.22.5-.5.5h-4.68c-.28 0-.5-.22-.5-.5Zm15.19 6c0 .28-.22.5-.5.5H14.31c-.28 0-.5-.22-.5-.5s.22-.5.5-.5H28.5c.28 0 .5.22.5.5Zm-5.52 2c0 .28-.22.5-.5.5h-8.67c-.28 0-.5-.22-.5-.5s.22-.5.5-.5h8.67c.28 0 .5.22.5.5Zm-3.99 2c0 .28-.22.5-.5.5h-4.68c-.28 0-.5-.22-.5-.5s.22-.5.5-.5h4.68c.28 0 .5.22.5.5Z"/></svg>