<svg xmlns="http://www.w3.org/2000/svg" width="24" height="24" viewBox="0 0 24 24"><path fill-rule="evenodd" d="M8.92 2a.76.76 0 0 0-.37.1L2.43 5.16a.78.78 0 0 0-.43.69v13.33c0 .27.14.51.36.65.23.14.51.15.75.03l5.81-2.9 3.76 1.88a.77.77 0 1 0 .69-1.37l-3.68-1.84V4.01l4.62 2.31v7.22a.77.77 0 0 0 1.54 0V6.32l4.61-2.31v7.47a.77.77 0 0 0 1.54 0V2.77a.77.77 0 0 0-.36-.65.77.77 0 0 0-.75-.03l-5.81 2.9-5.81-2.9a.84.84 0 0 0-.34-.08Zm-.77 2.01L3.54 6.32v11.61l4.61-2.31V4.01ZM19.82 15.5a.77.77 0 0 0-1.28-.86l-2.05 3.08a.77.77 0 0 0 .64 1.2h2.67l-1.25 1.88a.77.77 0 0 0 1.28.86l2.05-3.08a.77.77 0 0 0-.64-1.2h-2.67l1.25-1.88Z"/></svg>