<svg xmlns="http://www.w3.org/2000/svg" width="32" height="32" viewBox="0 0 32 32"><path d="M28.94 4.61c-4.34.51-8.47-.77-12.64-3.89L16 .5l-.3.22C11.39 3.86 7.14 5.18 3.07 4.6l-.57-.08v13.51c0 9.22 12.81 13.25 13.35 13.42l.15.05.15-.05c.55-.17 13.35-4.19 13.35-13.42V4.54l-.56.07Zm-.44 13.43c0 7.98-11.08 11.94-12.5 12.41-1.42-.47-12.5-4.43-12.5-12.41V5.66c4.07.41 8.27-.92 12.5-3.92 4.05 2.96 8.26 4.28 12.5 3.91v12.39Zm-12.22-5.98h-.56C11.46 12.06 8 15.5 8 19.73v5.11l.32.12c1.09.42 2.19.74 3.29.98.33.07.66.13 1 .19v-3.34c0-.93.75-1.67 1.68-1.67h3.42c.93 0 1.68.75 1.68 1.67v3.34c.34-.06.67-.12 1-.19 1.1-.24 2.2-.56 3.29-.98l.32-.12v-5.11c0-4.23-3.46-7.67-7.72-7.67ZM23 24.16c-.87.31-1.74.57-2.61.77v-2.14c0-1.47-1.2-2.67-2.68-2.67h-3.42c-1.48 0-2.68 1.19-2.68 2.67v2.14c-.87-.2-1.74-.46-2.61-.77v-4.42c0-3.68 3.01-6.68 6.72-6.68h.56c3.71 0 6.72 3 6.72 6.68v4.42Zm-7-12.43c2.21 0 4-1.78 4-3.98s-1.79-3.98-4-3.98-4 1.78-4 3.98 1.79 3.98 4 3.98Zm0-6.97a3 3 0 0 1 3 2.99 3 3 0 0 1-6 0 3 3 0 0 1 3-2.99Zm0 9.56a2.83 2.83 0 1 0 0 5.66 2.83 2.83 0 1 0 0-5.66Zm0 4.66c-1.01 0-1.84-.83-1.84-1.83s.83-1.83 1.84-1.83 1.84.83 1.84 1.83-.83 1.83-1.84 1.83Z"/></svg>