<svg xmlns="http://www.w3.org/2000/svg" width="32" height="32" viewBox="0 0 32 32"><path fill-rule="evenodd" d="M16 1.5C7.99 1.5 1.5 7.99 1.5 16S7.99 30.5 16 30.5 30.5 24.01 30.5 16 24.01 1.5 16 1.5Zm0 28C8.54 29.5 2.5 23.46 2.5 16S8.54 2.5 16 2.5 29.5 8.54 29.5 16 23.46 29.5 16 29.5ZM12.5 9a2.5 2.5 0 0 0-2.5 2.5v9a2.5 2.5 0 0 0 5 0v-9A2.5 2.5 0 0 0 12.5 9ZM14 20.5c0 .83-.67 1.5-1.5 1.5s-1.5-.67-1.5-1.5v-9c0-.83.67-1.5 1.5-1.5s1.5.67 1.5 1.5v9ZM19.5 9a2.5 2.5 0 0 0-2.5 2.5v9a2.5 2.5 0 0 0 5 0v-9A2.5 2.5 0 0 0 19.5 9ZM21 20.5c0 .83-.67 1.5-1.5 1.5s-1.5-.67-1.5-1.5v-9c0-.83.67-1.5 1.5-1.5s1.5.67 1.5 1.5v9Z"/></svg>