<svg xmlns="http://www.w3.org/2000/svg" width="24" height="24" viewBox="0 0 24 24"><path fill-rule="evenodd" d="M11.86 23c-2.7-1.99-8.11-7.6-8.11-14.12S9.16.91 11.86 1c2.8 0 8.39 1.58 8.39 7.88S14.66 20.92 11.86 23ZM7.44 3.75c-.17 2.91.81 5.1 1.82 6.56a4.12 4.12 0 1 0 5.43-.05 10.36 10.36 0 0 0 1.87-6.51s-2.05 1.46-3.16 4.32a10.03 10.03 0 0 0-.69 3.7c.12.06.24.12.35.21l.11.09A1.75 1.75 0 0 1 12 15.14a1.76 1.76 0 0 1-.89-3.28l.18-.09a9.45 9.45 0 0 0-.67-3.5c-1.1-2.89-3.18-4.52-3.18-4.52Z"/></svg>