<svg xmlns="http://www.w3.org/2000/svg" width="24" height="24" viewBox="0 0 24 24"><path fill-rule="evenodd" d="M9.83 6.4c.08.11.14.22.17.35a1.03 1.03 0 0 1-.11.76 1.2 1.2 0 0 1-.26.29 9.92 9.92 0 0 0-2.97 3.31 3.5 3.5 0 1 1-2.61 3.44 7.54 7.54 0 0 1 .51-3.61c.6-1.51 1.76-3.15 3.88-4.74.1-.08.22-.14.35-.17a1.03 1.03 0 0 1 .76.11c.11.07.21.16.29.26Zm7.58-.2c.1-.08.22-.14.35-.17a1.03 1.03 0 0 1 .76.11c.11.07.21.16.29.26.08.11.14.22.17.35a1.03 1.03 0 0 1-.11.76 1.2 1.2 0 0 1-.26.29 9.92 9.92 0 0 0-2.97 3.31 3.5 3.5 0 1 1-2.61 3.44 7.54 7.54 0 0 1 .51-3.61c.6-1.51 1.76-3.15 3.88-4.74ZM7.53 13c-.37 0-.73.14-1 .39s-.45.59-.49.96v.16a1.5 1.5 0 0 0 1.78 1.46c.29-.06.56-.2.76-.41.21-.21.35-.48.41-.77A1.5 1.5 0 0 0 7.52 13Zm8.98 0c-.37 0-.73.14-1 .39s-.45.59-.49.96v.16a1.5 1.5 0 0 0 1.78 1.46c.29-.06.56-.2.76-.41.21-.21.35-.48.41-.77A1.5 1.5 0 0 0 16.5 13Z"/></svg>