<svg xmlns="http://www.w3.org/2000/svg" width="24" height="24" viewBox="0 0 24 24"><path fill-rule="evenodd" d="M11.55 4.19c.12-.12.28-.19.45-.19s.33.07.45.19.19.28.19.45v.07a2.36 2.36 0 0 0 4 1.68l.06-.06a.6.6 0 0 1 .21-.14.69.69 0 0 1 .24-.05.64.64 0 0 1 .45.19.6.6 0 0 1 .14.21c.03.08.05.16.05.24a.64.64 0 0 1-.19.45l-.05.05a2.35 2.35 0 0 0-.54 2.41c.01.08.04.17.07.25a2.34 2.34 0 0 0 2.15 1.42h.14c.17 0 .33.07.45.19s.19.28.19.45-.07.33-.19.45a.64.64 0 0 1-.45.19h-.08a2.36 2.36 0 0 0-1.68 4l.06.06a.6.6 0 0 1 .14.21c.03.08.05.16.05.24a.64.64 0 0 1-.19.45.6.6 0 0 1-.21.14.69.69 0 0 1-.24.05.64.64 0 0 1-.45-.19l-.05-.05a2.35 2.35 0 0 0-4 1.67v.14c0 .17-.07.33-.19.45s-.28.19-.45.19-.33-.07-.45-.19a.64.64 0 0 1-.19-.45v-.1a2.36 2.36 0 0 0-1.51-2.14 2.36 2.36 0 0 0-2.56.48l-.06.06a.6.6 0 0 1-.21.14.69.69 0 0 1-.24.05.64.64 0 0 1-.45-.19.6.6 0 0 1-.14-.21.69.69 0 0 1-.05-.24.64.64 0 0 1 .19-.45l.05-.05a2.35 2.35 0 0 0 .47-2.59 2.34 2.34 0 0 0-2.15-1.42h-.14a.64.64 0 0 1-.45-.19c-.12-.12-.19-.28-.19-.45s.07-.33.19-.45a.64.64 0 0 1 .45-.19h.1c.47-.01.93-.16 1.31-.44.37-.27.66-.64.83-1.07a2.36 2.36 0 0 0-.48-2.56l-.06-.06a.6.6 0 0 1-.14-.21.69.69 0 0 1-.05-.24.64.64 0 0 1 .19-.45.6.6 0 0 1 .21-.14.69.69 0 0 1 .24-.05.64.64 0 0 1 .45.19l.05.05c.34.34.76.56 1.22.64.4.07.8.04 1.18-.09.08-.01.17-.04.25-.07a2.34 2.34 0 0 0 1.42-2.15v-.14c0-.17.07-.33.19-.45ZM12 2a2.63 2.63 0 0 0-2.63 2.63v.14c0 .07-.02.13-.06.19a.27.27 0 0 1-.07.08.98.98 0 0 0-.16.05.27.27 0 0 1-.2.02.31.31 0 0 1-.18-.09l-.04-.04a2.67 2.67 0 0 0-3.74 0 2.64 2.64 0 0 0-.57 2.88c.13.32.33.61.57.86l.04.04s.08.11.09.18c.01.07 0 .14-.02.2l-.02.06a.33.33 0 0 1-.31.22h-.06a2.63 2.63 0 0 0 0 5.26h.14c.07 0 .13.02.19.06.06.04.1.09.13.15a.3.3 0 0 1 .02.21.31.31 0 0 1-.09.18l-.04.04a2.64 2.64 0 0 0 3.74 3.73l.04-.04s.11-.08.18-.09c.07-.01.14 0 .2.02l.06.02a.33.33 0 0 1 .22.31v.06a2.63 2.63 0 0 0 5.26 0v-.14c0-.07.02-.13.06-.19.04-.06.09-.1.15-.13a.34.34 0 0 1 .2-.03c.07.01.13.04.18.09l.04.04a2.67 2.67 0 0 0 3.74 0 2.67 2.67 0 0 0 0-3.74l-.04-.04s-.08-.11-.09-.18a.44.44 0 0 1 .02-.2c.03-.07.07-.13.13-.16a.33.33 0 0 1 .19-.06h.07a2.63 2.63 0 0 0 0-5.26h-.14a.33.33 0 0 1-.19-.06.27.27 0 0 1-.08-.07.98.98 0 0 0-.05-.16.27.27 0 0 1-.02-.2.31.31 0 0 1 .09-.18l.04-.04a2.64 2.64 0 0 0 .57-2.88 2.7 2.7 0 0 0-2.43-1.63 2.67 2.67 0 0 0-1.87.77l-.04.04s-.11.08-.18.09a.44.44 0 0 1-.2-.02.38.38 0 0 1-.15-.13.33.33 0 0 1-.06-.19V4.6A2.63 2.63 0 0 0 12 1.97Zm7.08 17.02-.71-.71.71.71ZM10 12c0-1.1.9-2 2-2s2 .9 2 2-.9 2-2 2-2-.9-2-2Zm2-4a4 4 0 1 0 0 8 4 4 0 0 0 0-8Z"/></svg>