<svg xmlns="http://www.w3.org/2000/svg" width="32" height="32" viewBox="0 0 32 32"><path d="M22.23 10.39a.472.472 0 0 0-.51.03l-6.25 4.26v-3.85c0-.19-.11-.36-.27-.44a.49.49 0 0 0-.52.03L7.1 15.59c-.14.09-.22.24-.22.41s.08.32.22.41l7.58 5.17c.09.06.19.09.29.09.08 0 .16-.02.23-.06.16-.08.27-.25.27-.44v-3.85l6.25 4.26c.08.06.18.09.28.09.08 0 .16-.02.23-.06.17-.08.27-.25.27-.44V10.83c0-.19-.1-.36-.27-.44Zm-7.76 9.83L8.27 16l6.2-4.22v8.44Zm7.03 0-6.03-4.11-.16-.11.16-.11 6.03-4.11v8.44ZM16 1.5C8 1.5 1.5 8 1.5 16S8 30.5 16 30.5 30.5 24 30.5 16 24 1.5 16 1.5Zm0 28C8.56 29.5 2.5 23.44 2.5 16S8.56 2.5 16 2.5 29.5 8.56 29.5 16 23.44 29.5 16 29.5Z"/></svg>