<svg xmlns="http://www.w3.org/2000/svg" width="32" height="32" viewBox="0 0 32 32"><path d="M23.46 30c-.3 0-.61-.08-.9-.23l-6.33-3.47a.47.47 0 0 0-.46 0l-6.33 3.46c-.65.36-1.43.3-2.03-.16a2.05 2.05 0 0 1-.77-1.97l1.2-7.36a.5.5 0 0 0-.14-.45L2.59 14.6a2.07 2.07 0 0 1-.49-2.07c.23-.73.83-1.26 1.56-1.36l7.07-1.08c.16-.03.3-.13.36-.27l3.18-6.7A1.9 1.9 0 0 1 16 1.99c.63 0 1.2.32 1.56.84h.03l.15.29 3.17 6.69c.07.15.22.26.37.29l7.06 1.08c.74.12 1.34.65 1.56 1.38.22.73.03 1.52-.5 2.05l-5.11 5.21a.55.55 0 0 0-.14.46l1.2 7.35c.12.76-.17 1.52-.77 1.97-.34.26-.73.39-1.13.39ZM16 25.22c.24 0 .47.06.68.17l6.33 3.47c.32.18.7.15.99-.08a1 1 0 0 0 .38-.97l-1.2-7.36c-.07-.5.08-1 .42-1.35l5.11-5.22a1 1 0 0 0 .24-1 .95.95 0 0 0-.77-.68l-7.07-1.08a1.52 1.52 0 0 1-1.1-.84l-3.19-6.7a.92.92 0 0 0-.84-.55c-.34-.02-.69.21-.86.55l-3.17 6.69c-.2.45-.61.77-1.1.85L3.78 12.2a.93.93 0 0 0-.77.67c-.11.37-.02.75.24 1.02l5.11 5.21c.35.36.51.87.42 1.37l-1.2 7.35c-.06.38.08.74.38.96a.9.9 0 0 0 1 .08l6.33-3.46c.22-.12.45-.18.69-.18Z"/></svg>