<svg xmlns="http://www.w3.org/2000/svg" width="24" height="24" viewBox="0 0 24 24"><path fill-rule="evenodd" d="M3 3a1 1 0 0 1 1-1h2a1 1 0 0 1 1 1v1.07L20.07 5a1 1 0 0 1 .92 1.14l-1 7A1 1 0 0 1 19 14H7v2h10a3 3 0 1 1-2.83 2H8.83A3 3 0 1 1 5 16.17V4.01H4a1 1 0 0 1-1-1Zm4 3.07V12h11.13l.73-5.08L7 6.07Zm9.29 12.22c.19-.19.44-.29.71-.29s.52.11.71.29.29.44.29.71-.11.52-.29.71-.44.29-.71.29-.52-.11-.71-.29S16 19.27 16 19s.11-.52.29-.71Zm-11 0c.19-.19.44-.29.71-.29s.52.11.71.29c.19.19.29.44.29.71s-.11.52-.29.71c-.19.19-.44.29-.71.29s-.52-.11-.71-.29C5.1 19.52 5 19.27 5 19s.11-.52.29-.71Z"/></svg>