<svg xmlns="http://www.w3.org/2000/svg" width="24" height="24" viewBox="0 0 24 24"><path fill-rule="evenodd" d="M7.05 5.86C8.36 4.61 10.14 3.91 12 3.91s3.64.7 4.95 1.95A6.52 6.52 0 0 1 19 10.57v.16a3.08 3.08 0 0 0-1-.16h-1c-.8 0-1.56.3-2.12.84a2.8 2.8 0 0 0-.88 2.02v2.86c0 .76.32 1.48.88 2.02.4.38.9.64 1.44.76-.14.1-.32.19-.52.29-.92.44-2.26.74-3.8.74-.55 0-1 .43-1 .95s.45.95 1 .95c1.78 0 3.44-.34 4.69-.94.93-.44 1.81-1.12 2.16-2.04A2.92 2.92 0 0 0 21 16.28v-5.71c0-2.27-.95-4.45-2.64-6.06C16.67 2.9 14.38 2 12 2s-4.68.9-6.36 2.51A8.37 8.37 0 0 0 3 10.57v5.71c0 .76.32 1.48.88 2.02s1.33.84 2.12.84h1c.8 0 1.56-.3 2.12-.84a2.8 2.8 0 0 0 .88-2.02v-2.86a2.8 2.8 0 0 0-.88-2.02A3.06 3.06 0 0 0 7 10.56H6c-.34 0-.68.06-1 .16v-.16a6.5 6.5 0 0 1 2.05-4.71ZM19 13.43a.96.96 0 0 0-.29-.67 1.02 1.02 0 0 0-.71-.28h-1c-.27 0-.52.1-.71.28a.92.92 0 0 0-.29.67v2.86c0 .25.11.49.29.67.19.18.44.28.71.28h1c.27 0 .52-.1.71-.28a.92.92 0 0 0 .29-.67v-2.86ZM5 16.29v-2.86c0-.25.11-.49.29-.67.19-.18.44-.28.71-.28h1c.27 0 .52.1.71.28.19.18.29.42.29.67v2.86c0 .25-.11.49-.29.67-.19.18-.44.28-.71.28H6c-.27 0-.52-.1-.71-.28a.92.92 0 0 1-.29-.67Z"/></svg>