<svg xmlns="http://www.w3.org/2000/svg" width="40" height="40" viewBox="0 0 40 40">
  <g class="main">
    <path fill-rule="evenodd" d="M34.4 19.5v12.7c0 2.1-1.7 3.8-3.8 3.8h-7V24.9c0-.4-.4-.8-.8-.8h-5.6c-.4 0-.8.4-.8.8V36h-7a3.8 3.8 0 0 1-3.8-3.8V19.5L20 10.4l14.4 9.1Z"/>
  </g>
  <g class="hover-class">
    <path d="M4.2 18.5c-1 .6-2.2.3-2.8-.6-.6-1-.3-2.2.6-2.8L18.9 4.3c.7-.4 1.6-.4 2.2 0l7.7 4.9V7.9c0-.5.4-.9.9-.9h3.1c.5 0 .9.4.9.9v4.5l4.2 2.7c1 .6 1.2 1.9.6 2.8-.6 1-1.9 1.2-2.8.6l-15.8-10-15.8 10h.1Z"/>
  </g>
</svg>
