<svg xmlns="http://www.w3.org/2000/svg" width="24" height="24" fill="none" viewBox="0 0 24 24"><path fill="#000" fill-rule="evenodd" d="M16 3a1 1 0 1 0-2 0v2a1 1 0 1 0 2 0V3ZM5 4a1 1 0 0 0-1 1v16a1 1 0 0 0 1 1h13a1 1 0 0 0 1-1v-8a1 1 0 1 0-2 0v7H6V6h5.93a1 1 0 1 0 0-2H5Zm4 12a1 1 0 1 0 0 2h5a1 1 0 1 0 0-2H9ZM8 9a1 1 0 0 1 1-1h5a1 1 0 0 1 1 1v4a1 1 0 0 1-1 1H9a1 1 0 0 1-1-1V9Zm2 1v2h3v-2h-3Zm10.7-5.3-2 2a1 1 0 1 1-1.4-1.4l2-2a1 1 0 1 1 1.4 1.4ZM19 8a1 1 0 1 0 0 2h2a1 1 0 1 0 0-2h-2Z" clip-rule="evenodd"/></svg>