<svg xmlns="http://www.w3.org/2000/svg" width="40" height="40" viewBox="0 0 40 40">
  <g class="main">
    <path d="M4 33h32a2 2 0 0 1 2 2 2 2 0 0 1-2 2H4a2 2 0 0 1-2-2c0-1.1.9-2 2-2Z"/>
  </g>
  <g class="hover-class">
    <path d="M36 7.5H24.4L26 3.2v-.5c0-.6-.4-1.2-1-1.4-.8-.3-1.6.1-1.9.9l-1.5 4-1.5-4c-.2-.6-.8-1-1.4-1h-.5c-.8.3-1.2 1.2-.9 1.9l1.6 4.3H4a2 2 0 0 0-2 2v21c0 1.1.9 2 2 2h32a2 2 0 0 0 2-2V9.5a2 2 0 0 0-2-2Zm-10.5 13L18 24.9c-.7.4-1.5 0-1.5-.9v-8.9c0-.8.8-1.3 1.5-.9l7.5 4.4c.7.4.7 1.3 0 1.7v.2Z"/>
  </g>
</svg>
