<svg xmlns="http://www.w3.org/2000/svg" width="24" height="24" viewBox="0 0 24 24"><path fill-rule="evenodd" d="M15.83 2.77a.77.77 0 0 0-1.54 0v2.05a.77.77 0 0 0 1.54 0V2.77ZM4.77 4.05a.76.76 0 0 0-.77.77v16.41c0 .42.35.77.77.77h13.37c.43 0 .77-.34.77-.77v-8.21a.77.77 0 0 0-1.54 0v7.44H5.54V5.59h6.36a.77.77 0 0 0 0-1.54H4.77Zm4.12 12.31a.77.77 0 0 0 0 1.54h5.14a.77.77 0 0 0 0-1.54H8.89Zm-.78-7.44c0-.42.35-.77.77-.77h5.14c.43 0 .77.34.77.77v4.1c0 .42-.35.77-.77.77H8.88a.76.76 0 0 1-.77-.77v-4.1Zm1.55.77v2.56h3.6V9.69h-3.6Zm11.09-6.44c.3.3.3.79 0 1.09l-2.06 2.05A.77.77 0 0 1 17.6 5.3l2.06-2.05c.3-.3.79-.3 1.09 0Zm-1.58 4.9a.77.77 0 0 0 0 1.54h2.06a.77.77 0 0 0 0-1.54h-2.06Z"/></svg>