<svg xmlns="http://www.w3.org/2000/svg" width="24" height="24" viewBox="0 0 24 24"><path fill-rule="evenodd" d="M4.29 5.29A.99.99 0 0 1 5 5h14a.99.99 0 0 1 1 1v12c0 .27-.11.52-.29.71s-.44.29-.71.29H5a.99.99 0 0 1-1-1V6c0-.27.11-.52.29-.71ZM5 3a3 3 0 0 0-3 3v12a3 3 0 0 0 3 3h14a3 3 0 0 0 3-3V6a3 3 0 0 0-3-3H5Zm2 4c-.55 0-1 .45-1 1s.45 1 1 1h10c.55 0 1-.45 1-1s-.45-1-1-1H7Zm-1 5a1 1 0 0 1 1-1h10c.55 0 1 .45 1 1s-.45 1-1 1H7a1 1 0 0 1-1-1Zm1 3c-.55 0-1 .45-1 1s.45 1 1 1h10c.55 0 1-.45 1-1s-.45-1-1-1H7Z"/></svg>