<svg xmlns="http://www.w3.org/2000/svg" width="24" height="24" viewBox="0 0 24 24"><path fill-rule="evenodd" d="M21.66 3.25a1 1 0 0 1 .31.99l-4 16c-.09.35-.36.62-.7.72-.35.1-.72 0-.97-.26l-4.18-4.18-2.31 3.08a1 1 0 0 1-.96.39 1 1 0 0 1-.79-.67l-1.87-5.61-3.63-1.81a1 1 0 0 1-.55-.94c.02-.4.27-.74.64-.89l17.99-7a.98.98 0 0 1 1.02.18Zm-8.94 11.06-.02-.02-.28-.28 3.29-3.29a1 1 0 1 0-1.41-1.41l-4 4a1 1 0 0 0 0 1.41l.39.39-1.33 1.78-1.4-4.19a.99.99 0 0 0-.5-.58l-1.98-.99 14.1-5.48-3.1 12.41-3.74-3.74Z"/></svg>